<svg width="199" height="136" viewBox="0 0 199 136" fill="none" xmlns="http://www.w3.org/2000/svg">
<path d="M194.654 0H4.34872C1.98151 0 0.0625 1.91958 0.0625 4.28749V76.5605C0.0625 78.9285 1.98151 80.848 4.34872 80.848H194.654C197.022 80.848 198.941 78.9285 198.941 76.5605V4.28749C198.941 1.91958 197.022 0 194.654 0Z" fill="#3BE25A"/>
<path d="M70.3159 76.4651H56.6171C55.7452 76.4651 55.0356 77.1717 55.0356 78.047V91.7498C55.0356 93.1599 56.738 93.8633 57.734 92.8671L71.4328 79.1643C72.4287 78.168 71.7223 76.4651 70.3159 76.4651Z" fill="#3BE25A"/>
<path d="M60.706 133.886C59.885 126.597 53.6991 120.932 46.1927 120.932C38.6862 120.932 32.5194 126.578 31.6825 133.851C31.5775 134.749 32.2712 135.541 33.1749 135.541H59.2105C60.1014 135.541 60.8078 134.771 60.706 133.883V133.886Z" fill="#3BE25A"/>
<path d="M52.5504 102.976H39.7204C39.2459 102.976 38.8612 103.361 38.8612 103.836V116.669C38.8612 117.144 39.2459 117.529 39.7204 117.529H52.5504C53.0249 117.529 53.4095 117.144 53.4095 116.669V103.836C53.4095 103.361 53.0249 102.976 52.5504 102.976Z" fill="#3BE25A"/>
<path d="M162.847 133.886C162.026 126.597 155.84 120.932 148.333 120.932C140.827 120.932 134.66 126.578 133.823 133.851C133.718 134.749 134.412 135.541 135.316 135.541H161.351C162.242 135.541 162.948 134.771 162.847 133.883V133.886Z" fill="#3F3F3F"/>
<path d="M143.522 116.876C143.767 117.303 144.222 117.564 144.715 117.564H152.075C152.569 117.564 153.02 117.303 153.269 116.876L156.95 110.501C157.195 110.074 157.195 109.549 156.95 109.126L153.269 102.75C153.024 102.324 152.569 102.063 152.075 102.063H144.715C144.222 102.063 143.77 102.324 143.522 102.75L139.84 109.126C139.595 109.552 139.595 110.078 139.84 110.501L143.522 116.876Z" fill="#3F3F3F"/>
<path d="M97.2646 118.665C101.693 118.665 105.283 115.074 105.283 110.644C105.283 106.214 101.693 102.623 97.2646 102.623C92.836 102.623 89.2458 106.214 89.2458 110.644C89.2458 115.074 92.836 118.665 97.2646 118.665Z" fill="#3F3F3F"/>
<path d="M111.778 133.886C110.957 126.597 104.771 120.932 97.2646 120.932C89.7581 120.932 83.5913 126.578 82.7544 133.851C82.6494 134.749 83.3431 135.541 84.2468 135.541H110.282C111.173 135.541 111.88 134.771 111.778 133.883V133.886Z" fill="#3F3F3F"/>
<path d="M31.3579 24.665H39.2685V26.4857H33.3371V29.7196H38.9535V31.6199H33.3371V35.0734H39.4244V36.91H31.3579V24.665Z" fill="black"/>
<path d="M41.9669 24.1621C42.6415 24.1621 43.1602 24.7128 43.1602 25.3557C43.1602 26.0464 42.6415 26.5971 41.9669 26.5971C41.2923 26.5971 40.7418 26.0464 40.7418 25.3557C40.7418 24.7128 41.2605 24.1621 41.9669 24.1621ZM41.025 28.179H42.877V36.9068H41.025V28.179Z" fill="black"/>
<path d="M45.6548 34.1757V29.8596H43.9302V28.179H45.6548V25.6676H47.5227V28.179H49.9697V29.8596H47.5227V33.5328C47.5227 34.3954 47.5227 35.4808 48.716 35.4808C49.1233 35.4808 49.5624 35.3566 49.9729 35.137V36.8176C49.5338 37.0691 48.9355 37.1773 48.3564 37.1773C45.658 37.1773 45.658 35.1052 45.658 34.1789L45.6548 34.1757Z" fill="black"/>
<path d="M50.6635 34.7106C50.6635 33.0618 52.0126 32.4029 53.5814 32.0719C55.4333 31.6804 56.2193 31.6167 56.2193 30.8018C56.2193 30.0634 55.5925 29.4523 54.5869 29.4523C53.7087 29.4523 52.9863 29.9552 52.6872 30.9737L50.9467 30.3785C51.4812 28.6056 53.05 27.9308 54.6824 27.9308C56.6584 27.9308 58.119 28.9207 58.119 30.9769V34.179C58.119 35.6241 58.2304 36.2193 58.4022 36.91H56.5343C56.4102 36.4708 56.3625 36.0633 56.3625 35.5604H56.3307C55.8438 36.5344 54.8256 37.1774 53.5528 37.1774C52.0636 37.1774 50.6666 36.3785 50.6666 34.7137L50.6635 34.7106ZM54.0523 35.7323C55.4015 35.7323 56.2352 34.5387 56.2352 33.5679V32.7212C55.7802 32.9567 55.1056 33.1445 54.431 33.2878C53.6482 33.4596 52.7063 33.8066 52.7063 34.6533C52.7063 35.344 53.2568 35.7355 54.0555 35.7355L54.0523 35.7323Z" fill="black"/>
<path d="M60.4068 36.894C59.9041 36.6903 59.6368 36.2511 59.6368 35.7482C59.6368 35.0734 60.1873 34.5227 60.8778 34.5227C61.5683 34.5227 62.1029 35.0734 62.1029 35.7322C62.1029 36.3434 61.7274 36.8463 60.3305 39.0139H59.2804L60.41 36.894H60.4068Z" fill="black"/>
<path d="M67.2515 34.1757V29.8596H65.5269V28.179H67.2515V25.6676H69.1194V28.179H71.5664V29.8596H69.1194V33.5328C69.1194 34.3954 69.1194 35.4808 70.3127 35.4808C70.72 35.4808 71.1591 35.3566 71.5696 35.137V36.8176C71.1304 37.0691 70.5322 37.1773 69.9531 37.1773C67.2547 37.1773 67.2547 35.1052 67.2547 34.1789L67.2515 34.1757Z" fill="black"/>
<path d="M72.2568 34.7105C72.2568 33.0617 73.606 32.4028 75.1748 32.0718C77.0267 31.6803 77.8127 31.6166 77.8127 30.8018C77.8127 30.0633 77.1858 29.4522 76.1803 29.4522C75.3021 29.4522 74.5797 29.9551 74.2806 30.9737L72.54 30.3785C73.0746 28.6055 74.6434 27.9307 76.2758 27.9307C78.2518 27.9307 79.7124 28.9206 79.7124 30.9769V34.1789C79.7124 35.624 79.8238 36.2192 79.9956 36.91H78.1277C78.0036 36.4707 77.9559 36.0633 77.9559 35.5604H77.9241C77.4372 36.5344 76.419 37.1773 75.1461 37.1773C73.6569 37.1773 72.26 36.3784 72.26 34.7137L72.2568 34.7105ZM75.6457 35.7322C76.9949 35.7322 77.8286 34.5386 77.8286 33.5678V32.7211C77.3736 32.9567 76.699 33.1445 76.0244 33.2877C75.2416 33.4596 74.2997 33.8065 74.2997 34.6532C74.2997 35.3439 74.8502 35.7354 75.6489 35.7354L75.6457 35.7322ZM77.1381 24.178H79.3814L76.9949 27.1127H75.3784L77.1349 24.178H77.1381Z" fill="black"/>
<path d="M85.2046 28.1791H87.0247V29.6401H87.0565C87.8266 28.4464 88.8449 27.9276 90.0381 27.9276C92.3928 27.9276 93.898 29.952 93.898 32.5111C93.898 35.3981 92.046 37.1742 89.9108 37.1742C88.5457 37.1742 87.5879 36.4517 87.0565 35.5891V40.3604H85.2046V28.1791ZM89.5195 35.414C90.9482 35.414 91.9664 34.2045 91.9664 32.5589C91.9664 30.9133 90.9323 29.6846 89.5195 29.6846C88.1066 29.6846 87.0247 30.8623 87.0247 32.5589C87.0247 34.2554 88.1066 35.414 89.5195 35.414Z" fill="black"/>
<path d="M95.3585 28.1791H97.1787V29.656H97.2423C97.6814 28.6979 98.6074 27.9308 99.8166 27.9308C100.1 27.9308 100.383 27.9626 100.695 28.0868V30.1589C100.364 30.0347 99.9089 29.987 99.6288 29.987C97.6528 29.987 97.2105 31.8554 97.2105 33.2846V36.91H95.3585V28.1822V28.1791Z" fill="black"/>
<path d="M100.883 32.5748C100.883 29.8915 102.687 27.9276 105.229 27.9276C107.253 27.9276 109.372 29.1976 109.372 32.4952V33.0459H102.766C102.906 34.5992 103.991 35.5095 105.357 35.5095C106.438 35.5095 107.288 34.8665 107.695 33.8607L109.436 34.5514C108.841 36.0888 107.333 37.1742 105.357 37.1742C102.798 37.1742 100.886 35.3535 100.886 32.5748H100.883ZM107.489 31.7122C107.364 30.1271 106.295 29.5318 105.213 29.5318C103.928 29.5318 103.078 30.4263 102.859 31.7122H107.489Z" fill="black"/>
<path d="M110.282 32.5589C110.282 29.7324 112.182 27.9276 114.724 27.9276C116.497 27.9276 118.066 28.8379 118.712 30.579L116.955 31.2857C116.58 30.2035 115.714 29.6846 114.712 29.6846C113.207 29.6846 112.233 30.926 112.233 32.543C112.233 34.3 113.347 35.414 114.791 35.414C115.921 35.414 116.799 34.7392 117.238 33.6411L118.963 34.3159C118.336 36.1206 116.751 37.171 114.772 37.171C112.198 37.171 110.282 35.3822 110.282 32.5557V32.5589Z" fill="black"/>
<path d="M121.063 24.1621C121.738 24.1621 122.256 24.7128 122.256 25.3557C122.256 26.0464 121.738 26.5971 121.063 26.5971C120.388 26.5971 119.838 26.0464 119.838 25.3557C119.838 24.7128 120.357 24.1621 121.063 24.1621ZM120.121 28.179H121.973V36.9068H120.121V28.179Z" fill="black"/>
<path d="M123.23 34.7265L124.958 34.1599C125.365 35.1816 126.215 35.6368 126.966 35.6368C127.545 35.6368 128.347 35.3854 128.347 34.5864C128.347 33.848 127.625 33.6283 126.95 33.4246L126.04 33.1573C125.034 32.8581 123.641 32.231 123.641 30.5822C123.641 28.9334 125.085 27.9308 126.81 27.9308C128.535 27.9308 129.696 28.873 130.075 30.1143L128.35 30.6809C128.115 30.0379 127.612 29.4554 126.734 29.4554C126.027 29.4554 125.508 29.8469 125.508 30.4454C125.508 31.2316 126.45 31.5276 127.189 31.7313L127.911 31.935C128.773 32.1864 130.326 32.6416 130.326 34.3986C130.326 36.0474 129.009 37.1774 126.985 37.1774C125.069 37.1774 123.672 36.1875 123.233 34.7297L123.23 34.7265Z" fill="black"/>
<path d="M131.122 34.7106C131.122 33.0618 132.471 32.4029 134.04 32.0719C135.891 31.6804 136.677 31.6167 136.677 30.8018C136.677 30.0634 136.051 29.4523 135.045 29.4523C134.167 29.4523 133.444 29.9552 133.145 30.9737L131.405 30.3785C131.939 28.6056 133.508 27.9308 135.141 27.9308C137.117 27.9308 138.577 28.9207 138.577 30.9769V34.179C138.577 35.6241 138.689 36.2193 138.86 36.91H136.992C136.868 36.4708 136.821 36.0633 136.821 35.5604H136.789C136.302 36.5344 135.284 37.1774 134.011 37.1774C132.522 37.1774 131.125 36.3785 131.125 34.7137L131.122 34.7106ZM134.51 35.7323C135.86 35.7323 136.693 34.5387 136.693 33.5679V32.7212C136.238 32.9567 135.564 33.1445 134.889 33.2878C134.106 33.4596 133.164 33.8066 133.164 34.6533C133.164 35.344 133.715 35.7355 134.514 35.7355L134.51 35.7323Z" fill="black"/>
<path d="M140.525 28.1791H142.345V29.5764H142.376C143.035 28.4305 144.088 27.9276 145.202 27.9276C146.787 27.9276 148.295 28.9494 148.295 31.413V36.9068H146.427V32.2278C146.427 30.7828 145.893 29.6846 144.559 29.6846C143.302 29.6846 142.376 30.6586 142.376 32.2915V36.9068H140.525V28.1791Z" fill="black"/>
<path d="M149.657 32.5429C149.657 29.6846 151.43 27.9275 153.628 27.9275C154.93 27.9275 155.903 28.5705 156.454 29.4968H156.486V24.3467H158.354V34.1726C158.354 35.6336 158.462 36.2129 158.637 36.9036H156.785C156.661 36.3848 156.597 35.9933 156.613 35.6017H156.581C155.923 36.684 154.793 37.171 153.647 37.171C151.229 37.171 149.66 35.223 149.66 32.5397L149.657 32.5429ZM154.036 35.4012C155.464 35.4012 156.53 34.2076 156.53 32.527C156.53 30.8464 155.433 29.6846 154.036 29.6846C152.639 29.6846 151.589 30.8782 151.589 32.5429C151.589 34.2076 152.594 35.4012 154.036 35.4012Z" fill="black"/>
<path d="M159.811 32.5589C159.811 29.8438 161.647 27.9276 164.282 27.9276C166.917 27.9276 168.74 29.8438 168.74 32.5589C168.74 35.274 166.92 37.1742 164.282 37.1742C161.644 37.1742 159.811 35.274 159.811 32.5589ZM164.282 35.414C165.774 35.414 166.808 34.2204 166.808 32.5589C166.808 30.8973 165.774 29.6846 164.282 29.6846C162.789 29.6846 161.755 30.8782 161.755 32.5589C161.755 34.2395 162.789 35.414 164.282 35.414Z" fill="black"/>
<path d="M13.2107 51.4149C13.2107 48.7316 15.0149 46.7677 17.5574 46.7677C19.5812 46.7677 21.7004 48.0377 21.7004 51.3353V51.886H15.0945C15.2345 53.4393 16.3196 54.3496 17.6847 54.3496C18.7666 54.3496 19.6162 53.7066 20.0235 52.7008L21.764 53.3915C21.169 54.9289 19.6607 56.0143 17.6847 56.0143C15.1263 56.0143 13.2107 54.1936 13.2107 51.4149ZM19.8166 50.5523C19.6925 48.9672 18.6234 48.3719 17.5415 48.3719C16.2559 48.3719 15.4063 49.2664 15.1867 50.5523H19.8166Z" fill="black"/>
<path d="M22.4227 53.5634L24.1474 52.9968C24.5547 54.0186 25.4043 54.4737 26.1553 54.4737C26.7376 54.4737 27.5363 54.2223 27.5363 53.4233C27.5363 52.6849 26.814 52.4653 26.1394 52.2616L25.2293 51.9942C24.2238 51.695 22.8269 51.0679 22.8269 49.4191C22.8269 47.7703 24.2715 46.7677 25.9962 46.7677C27.7209 46.7677 28.8823 47.7099 29.261 48.9512L27.5331 49.5178C27.2976 48.8748 26.7949 48.2924 25.9166 48.2924C25.2102 48.2924 24.6915 48.6839 24.6915 49.2823C24.6915 50.0685 25.6334 50.3645 26.3717 50.5682L27.094 50.7719C27.9563 51.0234 29.5123 51.4785 29.5123 53.2355C29.5123 54.8843 28.195 56.0143 26.1712 56.0143C24.2556 56.0143 22.8587 55.0244 22.4196 53.5666L22.4227 53.5634Z" fill="black"/>
<path d="M31.5075 53.016V48.6998H29.7828V47.0192H31.5075V44.5078H33.3754V47.0192H35.8224V48.6998H33.3754V52.373C33.3754 53.2356 33.3754 54.321 34.5686 54.321C34.9759 54.321 35.4151 54.1968 35.8256 53.9772V55.6578C35.3864 55.9093 34.7882 56.0175 34.2091 56.0175C31.5107 56.0175 31.5107 53.9454 31.5107 53.0191L31.5075 53.016Z" fill="black"/>
<path d="M36.9998 52.4971V47.0192H38.8676V51.8382C38.8676 53.4393 39.5899 54.2541 40.6718 54.2541C41.9892 54.2541 42.7434 53.0764 42.7434 51.7746V47.0192H44.6112V53.0159C44.6112 54.4769 44.7226 55.0562 44.8944 55.7469H43.0425C42.9184 55.2281 42.8547 54.8366 42.8547 54.5215H42.8229C42.2883 55.4636 41.426 56.0111 40.1404 56.0111C38.3362 56.0111 37.0029 54.9289 37.0029 52.4939L36.9998 52.4971Z" fill="black"/>
<path d="M46.1035 51.3831C46.1035 48.5248 47.8759 46.7678 50.0747 46.7678C51.3762 46.7678 52.3499 47.4107 52.9004 48.337H52.9322V43.1869H54.8001V53.0128C54.8001 54.4738 54.9083 55.0531 55.0833 55.7438H53.2313C53.1072 55.225 53.0436 54.8335 53.0595 54.442H53.0277C52.369 55.5242 51.2393 56.0112 50.0938 56.0112C47.6755 56.0112 46.1067 54.0632 46.1067 51.3799L46.1035 51.3831ZM50.482 54.2414C51.9108 54.2414 52.9767 53.0478 52.9767 51.3672C52.9767 49.6866 51.8789 48.5248 50.482 48.5248C49.0851 48.5248 48.035 49.7184 48.035 51.3831C48.035 53.0478 49.0405 54.2414 50.482 54.2414Z" fill="black"/>
<path d="M56.2574 53.5475C56.2574 51.8987 57.6066 51.2398 59.1754 50.9088C61.0273 50.5173 61.8133 50.4536 61.8133 49.6388C61.8133 48.9003 61.1864 48.2892 60.1809 48.2892C59.3027 48.2892 58.5803 48.7921 58.2812 49.8106L56.5406 49.2154C57.0752 47.4425 58.644 46.7677 60.2764 46.7677C62.2524 46.7677 63.713 47.7576 63.713 49.8138V53.0159C63.713 54.461 63.8212 55.0562 63.9962 55.7469H62.1283C62.0042 55.3077 61.9565 54.9003 61.9565 54.3973H61.9247C61.4378 55.3713 60.4196 56.0143 59.1467 56.0143C57.6544 56.0143 56.2606 55.2154 56.2606 53.5507L56.2574 53.5475ZM59.6463 54.5692C60.9955 54.5692 61.826 53.3756 61.826 52.4048V51.5581C61.371 51.7936 60.6964 51.9814 60.0218 52.1247C59.2358 52.2966 58.294 52.6435 58.294 53.4902C58.294 54.1809 58.8445 54.5724 59.6431 54.5724L59.6463 54.5692Z" fill="black"/>
<path d="M65.6572 47.0191H67.4774V48.4961H67.541C67.9801 47.538 68.9061 46.7709 70.1153 46.7709C70.3985 46.7709 70.6817 46.8027 70.9935 46.9268V48.999C70.6626 48.8748 70.2107 48.8271 69.9275 48.8271C67.9515 48.8271 67.5124 50.6955 67.5124 52.1247V55.7501H65.6604V47.0223L65.6572 47.0191Z" fill="black"/>
<path d="M74.793 49.5943C74.793 47.067 75.6712 44.5874 77.3991 42.5471H79.2351C77.555 44.7593 76.6608 47.067 76.6608 49.5943C76.6608 52.1216 77.5391 54.617 79.2351 56.6573H77.3991C75.6744 54.617 74.793 52.1375 74.793 49.5943Z" fill="black"/>
<path d="M79.6869 51.399C79.6869 48.6839 81.5229 46.7677 84.1577 46.7677C86.7924 46.7677 88.6157 48.6839 88.6157 51.399C88.6157 54.1141 86.7956 56.0143 84.1577 56.0143C81.5198 56.0143 79.6869 54.1141 79.6869 51.399ZM84.1577 54.2541C85.6501 54.2541 86.6842 53.0605 86.6842 51.399C86.6842 49.7374 85.6501 48.5247 84.1577 48.5247C82.6653 48.5247 81.6311 49.7183 81.6311 51.399C81.6311 53.0796 82.6653 54.2541 84.1577 54.2541Z" fill="black"/>
<path d="M89.9681 52.4971V47.0192H91.836V51.8382C91.836 53.4393 92.5583 54.2541 93.6402 54.2541C94.9576 54.2541 95.7117 53.0764 95.7117 51.7746V47.0192H97.5796V53.0159C97.5796 54.4769 97.6878 55.0562 97.8628 55.7469H96.0109C95.8868 55.2281 95.8231 54.8366 95.8231 54.5215H95.7913C95.2567 55.4636 94.3944 56.0111 93.1088 56.0111C91.3046 56.0111 89.9713 54.9289 89.9713 52.4939L89.9681 52.4971Z" fill="black"/>
<path d="M101.831 47.0192H103.855C104.656 49.1709 105.36 51.2589 106.162 53.5507H106.193C106.979 51.2589 107.686 49.1709 108.469 47.0192H110.445L107.259 55.7469H105.032L101.831 47.0192Z" fill="black"/>
<path d="M112.392 42.999C113.067 42.999 113.585 43.5497 113.585 44.1926C113.585 44.8834 113.067 45.434 112.392 45.434C111.717 45.434 111.167 44.8834 111.167 44.1926C111.167 43.5497 111.686 42.999 112.392 42.999ZM111.45 47.016H113.302V55.7437H111.45V47.016Z" fill="black"/>
<path d="M114.747 53.5475C114.747 51.8987 116.096 51.2398 117.665 50.9088C119.517 50.5173 120.303 50.4536 120.303 49.6388C120.303 48.9003 119.676 48.2892 118.67 48.2892C117.792 48.2892 117.07 48.7921 116.771 49.8106L115.03 49.2154C115.565 47.4425 117.133 46.7677 118.766 46.7677C120.742 46.7677 122.202 47.7576 122.202 49.8138V53.0159C122.202 54.461 122.314 55.0562 122.486 55.7469H120.618C120.494 55.3077 120.446 54.9003 120.446 54.3973H120.414C119.927 55.3713 118.909 56.0143 117.636 56.0143C116.147 56.0143 114.75 55.2154 114.75 53.5507L114.747 53.5475ZM118.136 54.5692C119.485 54.5692 120.319 53.3756 120.319 52.4048V51.5581C119.864 51.7936 119.189 51.9814 118.514 52.1247C117.732 52.2966 116.79 52.6435 116.79 53.4902C116.79 54.1809 117.34 54.5724 118.139 54.5724L118.136 54.5692Z" fill="black"/>
<path d="M121.528 59.0891V57.4562C121.999 57.6758 122.454 57.7872 122.861 57.7872C124.147 57.7872 124.147 56.6413 124.147 55.887V47.0191H125.998V55.8583C125.998 57.2875 125.998 59.4519 123.252 59.4519C122.498 59.4519 121.967 59.296 121.528 59.0922V59.0891ZM125.092 42.999C125.766 42.999 126.285 43.5497 126.285 44.1926C126.285 44.8834 125.766 45.434 125.092 45.434C124.417 45.434 123.867 44.8834 123.867 44.1926C123.867 43.5497 124.385 42.999 125.092 42.999Z" fill="black"/>
<path d="M127.443 53.5475C127.443 51.8987 128.792 51.2398 130.361 50.9088C132.213 50.5173 132.999 50.4536 132.999 49.6388C132.999 48.9003 132.372 48.2892 131.367 48.2892C130.488 48.2892 129.766 48.7921 129.467 49.8106L127.726 49.2154C128.261 47.4425 129.83 46.7677 131.462 46.7677C133.438 46.7677 134.899 47.7576 134.899 49.8138V53.0159C134.899 54.461 135.01 55.0562 135.182 55.7469H133.314C133.19 55.3077 133.142 54.9003 133.142 54.3973H133.11C132.623 55.3713 131.605 56.0143 130.332 56.0143C128.843 56.0143 127.446 55.2154 127.446 53.5507L127.443 53.5475ZM130.832 54.5692C132.181 54.5692 133.015 53.3756 133.015 52.4048V51.5581C132.56 51.7936 131.885 51.9814 131.211 52.1247C130.428 52.2966 129.486 52.6435 129.486 53.4902C129.486 54.1809 130.036 54.5724 130.835 54.5724L130.832 54.5692Z" fill="black"/>
<path d="M136.843 47.0191H138.663V48.4961H138.727C139.166 47.538 140.092 46.7709 141.301 46.7709C141.584 46.7709 141.867 46.8027 142.179 46.9268V48.999C141.848 48.8748 141.393 48.8271 141.113 48.8271C139.137 48.8271 138.695 50.6955 138.695 52.1247V55.7501H136.843V47.0223V47.0191Z" fill="black"/>
<path d="M144.846 49.5943C144.846 47.067 143.936 44.7593 142.256 42.5471H144.092C145.816 44.5874 146.714 47.067 146.714 49.5943C146.714 52.1216 145.82 54.617 144.092 56.6573H142.256C143.952 54.617 144.846 52.1375 144.846 49.5943Z" fill="black"/>
<path d="M151.846 47.0192H153.666V48.4165H153.698C154.325 47.3024 155.41 46.7677 156.476 46.7677C157.542 46.7677 158.688 47.3024 159.143 48.5247H159.175C160.021 47.207 161.106 46.7677 162.108 46.7677C163.645 46.7677 165.201 47.8499 165.201 50.2531V55.7469H163.334V51.0679C163.334 49.591 162.799 48.5247 161.577 48.5247C160.355 48.5247 159.458 49.4987 159.458 51.1316V55.7469H157.59V51.0679C157.59 49.5783 157.055 48.5247 155.818 48.5247C154.58 48.5247 153.698 49.4987 153.698 51.1316V55.7469H151.846V47.0192Z" fill="black"/>
<path d="M166.535 53.5475C166.535 51.8987 167.884 51.2398 169.453 50.9088C171.305 50.5173 172.091 50.4536 172.091 49.6388C172.091 48.9003 171.464 48.2892 170.458 48.2892C169.58 48.2892 168.858 48.7921 168.558 49.8106L166.818 49.2154C167.352 47.4425 168.921 46.7677 170.554 46.7677C172.53 46.7677 173.99 47.7576 173.99 49.8138V53.0159C173.99 54.461 174.102 55.0562 174.273 55.7469H172.406C172.281 55.3077 172.234 54.9003 172.234 54.3973H172.202C171.715 55.3713 170.697 56.0143 169.424 56.0143C167.935 56.0143 166.538 55.2154 166.538 53.5507L166.535 53.5475ZM169.924 54.5692C171.273 54.5692 172.106 53.3756 172.106 52.4048V51.5581C171.651 51.7936 170.977 51.9814 170.302 52.1247C169.519 52.2966 168.578 52.6435 168.578 53.4902C168.578 54.1809 169.128 54.5724 169.927 54.5724L169.924 54.5692Z" fill="black"/>
<path d="M176.876 42.999C177.551 42.999 178.07 43.5497 178.07 44.1926C178.07 44.8834 177.551 45.434 176.876 45.434C176.202 45.434 175.651 44.8834 175.651 44.1926C175.651 43.5497 176.17 42.999 176.876 42.999ZM175.934 47.016H177.786V55.7437H175.934V47.016Z" fill="black"/>
<path d="M179.043 53.5634L180.771 52.9968C181.178 54.0186 182.028 54.4737 182.779 54.4737C183.358 54.4737 184.16 54.2223 184.16 53.4233C184.16 52.6849 183.438 52.4653 182.763 52.2616L181.853 51.9942C180.848 51.695 179.454 51.0679 179.454 49.4191C179.454 47.7703 180.898 46.7677 182.623 46.7677C184.348 46.7677 185.509 47.7099 185.888 48.9512L184.163 49.5178C183.928 48.8748 183.425 48.2924 182.547 48.2924C181.84 48.2924 181.322 48.6839 181.322 49.2823C181.322 50.0685 182.264 50.3645 183.002 50.5682L183.724 50.7719C184.586 51.0234 186.139 51.4785 186.139 53.2355C186.139 54.8843 184.822 56.0143 182.798 56.0143C180.883 56.0143 179.486 55.0244 179.047 53.5666L179.043 53.5634Z" fill="black"/>
</svg>
