<svg width="217" height="136" viewBox="0 0 217 136" fill="none" xmlns="http://www.w3.org/2000/svg">
<path d="M25.9464 0.815063H191.057C193.94 0.815063 196.616 2.44475 198.108 5.10892L215.558 36.2768C217.143 39.1065 217.143 42.6555 215.558 45.4852L198.108 76.6531C196.616 79.3173 193.943 80.9469 191.057 80.9469H25.9464C23.0635 80.9469 20.3874 79.3173 18.895 76.6531L1.4446 45.4852C-0.140062 42.6555 -0.140062 39.1065 1.4446 36.2768L18.895 5.10892C20.3874 2.44475 23.0603 0.815063 25.9464 0.815063Z" fill="#F24AFF"/>
<path d="M135.851 76.6022H149.55C150.422 76.6022 151.131 77.3088 151.131 78.1841V91.8869C151.131 93.297 149.429 94.0004 148.433 93.0041L134.734 79.3013C133.738 78.3051 134.445 76.6022 135.851 76.6022Z" fill="#F24AFF"/>
<path d="M69.706 134.342C68.885 127.053 62.6991 121.387 55.1927 121.387C47.6862 121.387 41.5194 127.034 40.6825 134.307C40.5775 135.204 41.2712 135.997 42.1749 135.997H68.2105C69.1014 135.997 69.8078 135.227 69.706 134.339V134.342Z" fill="#3F3F3F"/>
<path d="M61.5504 103.432H48.7204C48.2459 103.432 47.8612 103.816 47.8612 104.291V117.125C47.8612 117.6 48.2459 117.984 48.7204 117.984H61.5504C62.0249 117.984 62.4095 117.6 62.4095 117.125V104.291C62.4095 103.816 62.0249 103.432 61.5504 103.432Z" fill="#3F3F3F"/>
<path d="M171.847 134.342C171.026 127.053 164.84 121.387 157.333 121.387C149.827 121.387 143.66 127.033 142.823 134.307C142.718 135.204 143.412 135.997 144.316 135.997H170.351C171.242 135.997 171.948 135.226 171.847 134.338V134.342Z" fill="#F24AFF"/>
<path d="M152.522 117.332C152.767 117.758 153.222 118.019 153.715 118.019H161.075C161.569 118.019 162.02 117.758 162.269 117.332L165.95 110.956C166.195 110.53 166.195 110.004 165.95 109.581L162.269 103.206C162.024 102.779 161.569 102.518 161.075 102.518H153.715C153.222 102.518 152.77 102.779 152.522 103.206L148.84 109.581C148.595 110.008 148.595 110.533 148.84 110.956L152.522 117.332Z" fill="#F24AFF"/>
<path d="M106.265 119.121C110.693 119.121 114.283 115.529 114.283 111.099C114.283 106.67 110.693 103.078 106.265 103.078C101.836 103.078 98.2458 106.67 98.2458 111.099C98.2458 115.529 101.836 119.121 106.265 119.121Z" fill="#3F3F3F"/>
<path d="M120.778 134.342C119.957 127.053 113.771 121.387 106.265 121.387C98.7581 121.387 92.5913 127.034 91.7544 134.307C91.6494 135.204 92.3431 135.997 93.2468 135.997H119.282C120.173 135.997 120.88 135.227 120.778 134.339V134.342Z" fill="#3F3F3F"/>
<path d="M39.7089 26.9411V25.1205H49.3282V26.9411H45.5002V37.3655H43.5241V26.9411H39.712H39.7089Z" fill="black"/>
<path d="M48.2622 33.0143C48.2622 30.2992 50.0982 28.383 52.7362 28.383C55.3741 28.383 57.1942 30.2992 57.1942 33.0143C57.1942 35.7294 55.3741 37.6296 52.7362 37.6296C50.0982 37.6296 48.2622 35.7294 48.2622 33.0143ZM51.7466 24.7576H53.7226L55.9978 27.5682H54.2413C53.7544 27.0334 53.2198 26.4541 52.7362 25.9034C52.2334 26.47 51.7306 27.0175 51.2311 27.5682H49.4746L51.7497 24.7576H51.7466ZM52.7362 35.8726C54.2254 35.8726 55.2627 34.679 55.2627 33.0175C55.2627 31.3559 54.2254 30.1432 52.7362 30.1432C51.247 30.1432 50.2096 31.3368 50.2096 33.0175C50.2096 34.6981 51.247 35.8726 52.7362 35.8726Z" fill="black"/>
<path d="M63.1383 24.6176C63.8129 24.6176 64.3316 25.1682 64.3316 25.8112C64.3316 26.5019 63.8129 27.0526 63.1383 27.0526C62.4637 27.0526 61.9132 26.5019 61.9132 25.8112C61.9132 25.1682 62.4319 24.6176 63.1383 24.6176ZM62.1964 28.6345H64.0484V37.3622H62.1964V28.6345Z" fill="black"/>
<path d="M66.088 28.6345H67.9082V30.0319H67.94C68.5668 28.9178 69.6519 28.3831 70.7179 28.3831C71.7839 28.3831 72.9294 28.9178 73.3845 30.1401H73.4163C74.2627 28.8223 75.3478 28.3831 76.3501 28.3831C77.8871 28.3831 79.4399 29.4653 79.4399 31.8684V37.3623H77.572V32.6833C77.572 31.2064 77.0375 30.1401 75.8156 30.1401C74.5936 30.1401 73.6963 31.1141 73.6963 32.7469V37.3623H71.8284V32.6833C71.8284 31.1936 71.2939 30.1401 70.056 30.1401C68.8182 30.1401 67.9368 31.1141 67.9368 32.7469V37.3623H66.0848V28.6345H66.088Z" fill="black"/>
<path d="M81.3746 28.6345H83.1948V30.0955H83.2266C83.9966 28.9019 85.0149 28.3831 86.2082 28.3831C88.5629 28.3831 90.068 30.4074 90.068 32.9666C90.068 35.8536 88.216 37.6297 86.0809 37.6297C84.7158 37.6297 83.758 36.9071 83.2266 36.0445V40.8158H81.3746V28.6345ZM85.6895 35.8695C87.1182 35.8695 88.1365 34.6599 88.1365 33.0143C88.1365 31.3687 87.1023 30.1401 85.6895 30.1401C84.2767 30.1401 83.1948 31.3178 83.1948 33.0143C83.1948 34.7109 84.2767 35.8695 85.6895 35.8695Z" fill="black"/>
<path d="M91.5286 28.6345H93.3487V30.1114H93.4123C93.8515 29.1533 94.7774 28.3862 95.9866 28.3862C96.2698 28.3862 96.553 28.4181 96.8649 28.5422V30.6143C96.5339 30.4902 96.0789 30.4424 95.7989 30.4424C93.8228 30.4424 93.3805 32.3108 93.3805 33.74V37.3654H91.5286V28.6377V28.6345Z" fill="black"/>
<path d="M97.0526 33.0302C97.0526 30.347 98.8568 28.3831 101.399 28.3831C103.423 28.3831 105.542 29.6531 105.542 32.9506V33.5013H98.9364C99.0764 35.0546 100.161 35.965 101.527 35.965C102.608 35.965 103.458 35.322 103.865 34.3162L105.606 35.0069C105.011 36.5443 103.503 37.6297 101.527 37.6297C98.9682 37.6297 97.0526 35.809 97.0526 33.0302ZM103.659 32.1676C103.534 30.5825 102.465 29.9873 101.383 29.9873C100.098 29.9873 99.2482 30.8817 99.0287 32.1676H103.659Z" fill="black"/>
<path d="M106.265 35.1819L107.989 34.6153C108.397 35.6371 109.246 36.0922 109.997 36.0922C110.58 36.0922 111.378 35.8408 111.378 35.0419C111.378 34.3034 110.656 34.0838 109.981 33.8801L109.071 33.6127C108.066 33.3135 106.669 32.6864 106.669 31.0377C106.669 29.3889 108.113 28.3862 109.838 28.3862C111.563 28.3862 112.724 29.3284 113.103 30.5698L111.375 31.1363C111.14 30.4934 110.637 29.9109 109.759 29.9109C109.052 29.9109 108.533 30.3024 108.533 30.9008C108.533 31.687 109.475 31.983 110.214 32.1867L110.936 32.3904C111.798 32.6419 113.354 33.097 113.354 34.8541C113.354 36.5028 112.037 37.6328 110.013 37.6328C108.098 37.6328 106.701 36.6429 106.261 35.1851L106.265 35.1819Z" fill="black"/>
<path d="M113.968 35.1819L115.696 34.6153C116.104 35.6371 116.953 36.0922 117.704 36.0922C118.283 36.0922 119.085 35.8408 119.085 35.0419C119.085 34.3034 118.363 34.0838 117.688 33.8801L116.778 33.6127C115.773 33.3135 114.379 32.6864 114.379 31.0377C114.379 29.3889 115.824 28.3862 117.548 28.3862C119.273 28.3862 120.434 29.3284 120.813 30.5698L119.088 31.1363C118.853 30.4934 118.35 29.9109 117.472 29.9109C116.765 29.9109 116.247 30.3024 116.247 30.9008C116.247 31.687 117.189 31.983 117.927 32.1867L118.649 32.3904C119.512 32.6419 121.064 33.097 121.064 34.8541C121.064 36.5028 119.747 37.6328 117.723 37.6328C115.808 37.6328 114.411 36.6429 113.972 35.1851L113.968 35.1819Z" fill="black"/>
<path d="M123.4 24.6176C124.075 24.6176 124.593 25.1682 124.593 25.8112C124.593 26.5019 124.075 27.0526 123.4 27.0526C122.725 27.0526 122.175 26.5019 122.175 25.8112C122.175 25.1682 122.694 24.6176 123.4 24.6176ZM122.458 28.6345H124.31V37.3622H122.458V28.6345Z" fill="black"/>
<path d="M125.755 33.0143C125.755 30.2992 127.591 28.3831 130.229 28.3831C132.867 28.3831 134.687 30.2992 134.687 33.0143C134.687 35.7294 132.867 37.6297 130.229 37.6297C127.591 37.6297 125.755 35.7294 125.755 33.0143ZM130.229 35.8695C131.718 35.8695 132.755 34.6759 132.755 33.0143C132.755 31.3528 131.718 30.1401 130.229 30.1401C128.74 30.1401 127.702 31.3337 127.702 33.0143C127.702 34.6949 128.74 35.8695 130.229 35.8695Z" fill="black"/>
<path d="M136.144 28.6345H137.964V30.0319H137.996C138.655 28.886 139.708 28.3831 140.822 28.3831C142.406 28.3831 143.915 29.4048 143.915 31.8684V37.3623H142.047V32.6833C142.047 31.2382 141.512 30.1401 140.179 30.1401C138.922 30.1401 137.996 31.1141 137.996 32.7469V37.3623H136.144V28.6345Z" fill="black"/>
<path d="M145.245 35.166C145.245 33.5172 146.594 32.8583 148.163 32.5273C150.015 32.1358 150.801 32.0721 150.801 31.2573C150.801 30.5188 150.174 29.9077 149.168 29.9077C148.29 29.9077 147.568 30.4106 147.269 31.4292L145.528 30.8339C146.063 29.061 147.631 28.3862 149.264 28.3862C151.24 28.3862 152.7 29.3761 152.7 31.4323V34.6344C152.7 36.0795 152.812 36.6747 152.983 37.3654H151.116C150.992 36.9262 150.944 36.5188 150.944 36.0159H150.912C150.425 36.9899 149.407 37.6328 148.134 37.6328C146.645 37.6328 145.248 36.8339 145.248 35.1692L145.245 35.166ZM148.634 36.1878C149.983 36.1878 150.817 34.9941 150.817 34.0233V33.1767C150.361 33.4122 149.687 33.6 149.012 33.7432C148.23 33.9151 147.288 34.262 147.288 35.1087C147.288 35.7994 147.838 36.1909 148.637 36.1909L148.634 36.1878Z" fill="black"/>
<path d="M154.081 32.9983C154.081 30.14 155.854 28.383 158.053 28.383C159.354 28.383 160.328 29.026 160.878 29.9522H160.91V24.8021H162.778V34.628C162.778 36.089 162.889 36.6683 163.061 37.359H161.209C161.085 36.8402 161.021 36.4487 161.037 36.0572H161.005C160.347 37.1394 159.217 37.6264 158.072 37.6264C155.656 37.6264 154.084 35.6784 154.084 32.9951L154.081 32.9983ZM158.46 35.8567C159.889 35.8567 160.955 34.663 160.955 32.9824C160.955 31.3018 159.857 30.14 158.46 30.14C157.063 30.14 156.013 31.3336 156.013 32.9983C156.013 34.663 157.018 35.8567 158.46 35.8567Z" fill="black"/>
<path d="M164.235 33.0143C164.235 30.2992 166.071 28.3831 168.706 28.3831C171.341 28.3831 173.164 30.2992 173.164 33.0143C173.164 35.7294 171.344 37.6297 168.706 37.6297C166.068 37.6297 164.235 35.7294 164.235 33.0143ZM168.706 35.8695C170.198 35.8695 171.233 34.6759 171.233 33.0143C171.233 31.3528 170.198 30.1401 168.706 30.1401C167.214 30.1401 166.179 31.3337 166.179 33.0143C166.179 34.6949 167.214 35.8695 168.706 35.8695Z" fill="black"/>
<path d="M175.646 34.9782C176.289 34.9782 176.871 35.5289 176.871 36.2037C176.871 36.8785 176.321 37.4769 175.646 37.4769C174.972 37.4769 174.405 36.9103 174.405 36.2037C174.405 35.4971 174.956 34.9782 175.646 34.9782ZM174.625 26.3459V25.1205H176.648V26.3459L176.162 33.7878H175.112L174.625 26.3459Z" fill="black"/>
<path d="M39.6675 50.0624C39.6675 46.0454 42.5854 43.7059 45.8661 43.7059C48.3768 43.7059 50.5724 45.1033 51.4061 47.4746L49.5859 48.2131C48.9432 46.6279 47.6258 45.5743 45.8343 45.5743C43.5432 45.5743 41.739 47.3155 41.739 50.1579C41.739 53.3122 43.9824 54.6013 46.0061 54.6013C48.0299 54.6013 49.4268 53.3759 50.0219 51.4311L51.842 52.0581C50.916 54.9451 48.7522 56.4697 45.9584 56.4697C42.3022 56.4697 39.6643 53.8947 39.6643 50.0655L39.6675 50.0624Z" fill="black"/>
<path d="M52.332 51.8544C52.332 49.1393 54.1681 47.2231 56.806 47.2231C59.4439 47.2231 61.264 49.1393 61.264 51.8544C61.264 54.5695 59.4439 56.4697 56.806 56.4697C54.1681 56.4697 52.332 54.5695 52.332 51.8544ZM56.806 54.7095C58.2952 54.7095 59.3325 53.5159 59.3325 51.8544C59.3325 50.1929 58.2952 48.9801 56.806 48.9801C55.3168 48.9801 54.2794 50.1738 54.2794 51.8544C54.2794 53.535 55.3168 54.7095 56.806 54.7095Z" fill="black"/>
<path d="M62.7214 47.4746H64.5416V48.8719H64.5734C65.2003 47.7579 66.2853 47.2231 67.3513 47.2231C68.4173 47.2231 69.5629 47.7579 70.0179 48.9801H70.0497C70.8961 47.6624 71.9812 47.2231 72.9836 47.2231C74.5205 47.2231 76.0733 48.3053 76.0733 50.7085V56.2024H74.2055V51.5233C74.2055 50.0464 73.6709 48.9801 72.449 48.9801C71.2271 48.9801 70.3297 49.9541 70.3297 51.587V56.2024H68.4619V51.5233C68.4619 50.0337 67.9273 48.9801 66.6895 48.9801C65.4516 48.9801 64.5702 49.9541 64.5702 51.587V56.2024H62.7183V47.4746H62.7214Z" fill="black"/>
<path d="M77.413 51.8544C77.413 49.1393 79.249 47.2231 81.8837 47.2231C84.5185 47.2231 86.3418 49.1393 86.3418 51.8544C86.3418 54.5695 84.5217 56.4697 81.8837 56.4697C79.2458 56.4697 77.413 54.5695 77.413 51.8544ZM81.8837 54.7095C83.3761 54.7095 84.4103 53.5159 84.4103 51.8544C84.4103 50.1929 83.3761 48.9801 81.8837 48.9801C80.3914 48.9801 79.3572 50.1738 79.3572 51.8544C79.3572 53.535 80.3914 54.7095 81.8837 54.7095Z" fill="black"/>
<path d="M90.7522 51.8544C90.7522 49.0279 92.6519 47.2231 95.1943 47.2231C96.9667 47.2231 98.5355 48.1335 99.1814 49.8746L97.425 50.5812C97.0495 49.499 96.184 48.9801 95.1816 48.9801C93.6765 48.9801 92.7028 50.2215 92.7028 51.8385C92.7028 53.5955 93.8165 54.7095 95.2612 54.7095C96.3908 54.7095 97.269 54.0347 97.7082 52.9366L99.4328 53.6114C98.806 55.4162 97.2213 56.4665 95.2421 56.4665C92.6678 56.4665 90.7522 54.6777 90.7522 51.8512V51.8544Z" fill="black"/>
<path d="M99.996 51.8544C99.996 49.1393 101.832 47.2231 104.47 47.2231C107.108 47.2231 108.928 49.1393 108.928 51.8544C108.928 54.5695 107.108 56.4697 104.47 56.4697C101.832 56.4697 99.996 54.5695 99.996 51.8544ZM104.47 54.7095C105.959 54.7095 106.996 53.5159 106.996 51.8544C106.996 50.1929 105.959 48.9801 104.47 48.9801C102.981 48.9801 101.943 50.1738 101.943 51.8544C101.943 53.535 102.981 54.7095 104.47 54.7095Z" fill="black"/>
<path d="M110.385 47.4746H112.206V48.8719H112.237C112.896 47.726 113.949 47.2231 115.063 47.2231C116.648 47.2231 118.156 48.2449 118.156 50.7085V56.2024H116.288V51.5233C116.288 50.0783 115.753 48.9801 114.42 48.9801C113.163 48.9801 112.237 49.9541 112.237 51.587V56.2024H110.385V47.4746Z" fill="black"/>
<path d="M119.298 54.0188L121.026 53.4522C121.433 54.474 122.283 54.9292 123.034 54.9292C123.613 54.9292 124.415 54.6777 124.415 53.8788C124.415 53.1403 123.693 52.9207 123.018 52.717L122.108 52.4496C121.103 52.1504 119.709 51.5234 119.709 49.8746C119.709 48.2258 121.153 47.2231 122.878 47.2231C124.603 47.2231 125.764 48.1653 126.143 49.4067L124.418 49.9732C124.183 49.3303 123.68 48.7478 122.802 48.7478C122.095 48.7478 121.577 49.1393 121.577 49.7377C121.577 50.5239 122.519 50.8199 123.257 51.0236L123.979 51.2273C124.841 51.4788 126.394 51.934 126.394 53.691C126.394 55.3398 125.077 56.4697 123.053 56.4697C121.138 56.4697 119.741 55.4798 119.302 54.022L119.298 54.0188Z" fill="black"/>
<path d="M127.19 51.8703C127.19 49.187 128.994 47.2231 131.537 47.2231C133.56 47.2231 135.68 48.4932 135.68 51.7907V52.3414H129.074C129.214 53.8947 130.299 54.805 131.664 54.805C132.746 54.805 133.595 54.162 134.003 53.1562L135.743 53.8469C135.148 55.3843 133.64 56.4697 131.664 56.4697C129.105 56.4697 127.19 54.6491 127.19 51.8703ZM133.796 51.0077C133.672 49.4226 132.602 48.8273 131.521 48.8273C130.235 48.8273 129.385 49.7218 129.166 51.0077H133.796Z" fill="black"/>
<path d="M136.952 57.396L138.648 56.7848C139.056 57.8066 139.81 58.3222 140.987 58.3222C142.46 58.3222 143.434 57.4597 143.434 55.2602V54.665H143.402C142.775 55.7313 141.722 56.1705 140.624 56.1705C138.082 56.1705 136.609 54.1302 136.609 51.6952C136.609 49.0724 138.321 47.2231 140.564 47.2231C141.897 47.2231 142.887 47.8661 143.437 48.8242H143.469V47.4746H145.305V55.2602C145.305 58.8092 143.313 59.9074 141.054 59.9074C139.422 59.9074 137.697 59.3726 136.959 57.396H136.952ZM140.984 54.3976C142.413 54.3976 143.479 53.1881 143.479 51.6666C143.479 50.1451 142.397 48.9833 140.984 48.9833C139.571 48.9833 138.537 50.161 138.537 51.6666C138.537 53.1721 139.558 54.3976 140.984 54.3976Z" fill="black"/>
<path d="M147.23 52.9526V47.4746H149.098V52.2937C149.098 53.8947 149.821 54.7095 150.902 54.7095C152.22 54.7095 152.974 53.5319 152.974 52.23V47.4746H154.842V53.4714C154.842 54.9324 154.953 55.5117 155.125 56.2024H153.273C153.149 55.6836 153.085 55.2921 153.085 54.9769H153.053C152.519 55.9191 151.657 56.4666 150.371 56.4666C148.567 56.4666 147.234 55.3844 147.234 52.9494L147.23 52.9526Z" fill="black"/>
<path d="M157.839 43.4545C158.514 43.4545 159.033 44.0051 159.033 44.6481C159.033 45.3388 158.514 45.8895 157.839 45.8895C157.165 45.8895 156.614 45.3388 156.614 44.6481C156.614 44.0051 157.133 43.4545 157.839 43.4545ZM156.897 47.4714H158.749V56.1992H156.897V47.4714Z" fill="black"/>
<path d="M160.681 52.9526V47.4746H162.549V52.2937C162.549 53.8947 163.271 54.7095 164.353 54.7095C165.67 54.7095 166.425 53.5319 166.425 52.23V47.4746H168.292V53.4714C168.292 54.9324 168.401 55.5117 168.576 56.2024H166.724C166.6 55.6836 166.536 55.2921 166.536 54.9769H166.504C165.969 55.9191 165.107 56.4666 163.822 56.4666C162.017 56.4666 160.684 55.3844 160.684 52.9494L160.681 52.9526Z" fill="black"/>
<path d="M172.216 51.9785C172.216 50.7849 172.986 50.142 174.115 49.4035C174.87 48.8528 175.637 48.2576 175.637 47.2836C175.637 46.2014 174.758 45.5107 173.66 45.5107C172.391 45.5107 171.465 46.4369 171.465 47.8024C171.465 47.8979 171.465 48.0221 171.481 48.1335L169.708 47.8184C169.692 47.7102 169.677 47.6146 169.677 47.5192C169.677 45.116 171.592 43.7059 173.788 43.7059C175.983 43.7059 177.727 44.9759 177.727 47.1117C177.727 48.7128 176.677 49.6072 175.735 50.3138C174.933 50.8963 174.23 51.3642 174.23 52.1982C174.23 52.386 174.278 52.6374 174.341 52.873H172.318C172.27 52.5738 172.222 52.2618 172.222 51.9785H172.216ZM173.377 53.8151C174.052 53.8151 174.618 54.3658 174.618 55.0724C174.618 55.779 174.084 56.3138 173.409 56.3138C172.734 56.3138 172.152 55.7313 172.152 55.0406C172.152 54.3499 172.703 53.8151 173.377 53.8151Z" fill="black"/>
</svg>
