<svg width="230" height="153" viewBox="0 0 230 153" fill="none" xmlns="http://www.w3.org/2000/svg">
<path d="M229.586 150.57C228.723 142.913 222.225 136.961 214.34 136.961C206.455 136.961 199.977 142.893 199.098 150.534C198.988 151.477 199.716 152.309 200.666 152.309H228.015C228.951 152.309 229.693 151.5 229.586 150.567V150.57Z" fill="#3BE25A"/>
<path d="M221.019 118.099H207.541C207.043 118.099 206.639 118.504 206.639 119.002V132.484C206.639 132.983 207.043 133.387 207.541 133.387H221.019C221.517 133.387 221.921 132.983 221.921 132.484V119.002C221.921 118.504 221.517 118.099 221.019 118.099Z" fill="#3BE25A"/>
<path d="M182.94 0.0749512H4.75635C2.52631 0.0749512 0.718506 1.88339 0.718506 4.11421V148.337C0.718506 150.568 2.52631 152.376 4.75635 152.376H182.94C185.17 152.376 186.978 150.568 186.978 148.337V4.11421C186.978 1.88339 185.17 0.0749512 182.94 0.0749512Z" fill="#3BE25A"/>
<path d="M184.616 94.8435L201.884 112.117C202.502 112.736 202.064 113.793 201.192 113.793H184.616V94.8435Z" fill="#3BE25A"/>
<path d="M27.4793 30.5833C26.7908 30.9211 25.9818 31.125 25.1295 31.125C22.1312 31.125 19.7412 28.868 19.7412 25.6413C19.7412 22.4146 22.1312 20.1442 25.1429 20.1442C28.1545 20.1442 30.5311 22.4814 30.5311 25.6413C30.5311 27.2898 29.896 28.7209 28.8297 29.7073C29.2877 30.2356 29.7489 30.7739 30.2069 31.3156L28.9768 32.3288L27.4793 30.5867V30.5833ZM25.1562 29.5167C25.5607 29.5167 25.9651 29.4097 26.3161 29.2191L24.8855 27.5439L26.1156 26.5307L27.7233 28.4367C28.3852 27.7345 28.7763 26.7748 28.7763 25.6413C28.7763 23.4277 27.2921 21.7525 25.1596 21.7525C23.027 21.7525 21.4994 23.3876 21.4994 25.6413C21.4994 27.895 23.0537 29.5167 25.1596 29.5167H25.1562Z" fill="black"/>
<path d="M32.0152 28.099V23.3843H33.623V27.5305C33.623 28.9081 34.2447 29.6103 35.1773 29.6103C36.3105 29.6103 36.9589 28.5972 36.9589 27.477V23.3843H38.5667V28.5437C38.5667 29.8009 38.6603 30.2991 38.8107 30.8943H37.2163C37.1093 30.4496 37.0525 30.1119 37.0525 29.8411H37.0258C36.5678 30.6502 35.8258 31.125 34.716 31.125C33.1651 31.125 32.0152 30.1921 32.0152 28.099Z" fill="black"/>
<path d="M40.0876 29.0017C40.0876 27.584 41.2475 27.0155 42.5979 26.7313C44.1923 26.3936 44.8675 26.3401 44.8675 25.6379C44.8675 25.0026 44.326 24.4776 43.4636 24.4776C42.7082 24.4776 42.0865 24.909 41.8291 25.7884L40.3316 25.2734C40.7895 23.7487 42.1399 23.1669 43.5438 23.1669C45.2452 23.1669 46.502 24.0162 46.502 25.7884V28.5436C46.502 29.7875 46.5956 30.2991 46.746 30.8943H45.1382C45.0313 30.5164 44.9912 30.1653 44.9912 29.734H44.9644C44.5466 30.5699 43.6675 31.125 42.5745 31.125C41.2909 31.125 40.0909 30.4362 40.0909 29.0051L40.0876 29.0017ZM43.0023 29.8778C44.1622 29.8778 44.8775 28.8512 44.8775 28.0153V27.2864C44.4864 27.4903 43.9048 27.6508 43.3266 27.7712C42.6514 27.9183 41.8424 28.2159 41.8424 28.9449C41.8424 29.5401 42.3138 29.8778 43.0023 29.8778Z" fill="black"/>
<path d="M48.4441 23.3842H50.0117V24.5846H50.0385C50.6067 23.5982 51.5092 23.1669 52.4685 23.1669C53.8323 23.1669 55.1292 24.0463 55.1292 26.1662V30.8943H53.5215V26.8684C53.5215 25.6245 53.0635 24.6816 51.9137 24.6816C50.834 24.6816 50.0385 25.5175 50.0385 26.9219V30.8943H48.4441V23.3842Z" fill="black"/>
<path d="M57.5994 28.5437V24.8288H56.1153V23.3843H57.5994V21.2242H59.2072V23.3843H61.3131V24.8288H59.2072V27.9886C59.2072 28.731 59.2072 29.6639 60.2334 29.6639C60.5844 29.6639 60.9621 29.5569 61.3131 29.3663V30.8108C60.9353 31.0281 60.4206 31.1217 59.9225 31.1217C57.5994 31.1217 57.5994 29.3395 57.5994 28.5437Z" fill="black"/>
<path d="M62.0818 27.1526C62.0818 24.8153 63.6629 23.1669 65.9292 23.1669C68.1955 23.1669 69.7631 24.8153 69.7631 27.1526C69.7631 29.4899 68.1955 31.125 65.9292 31.125C63.6629 31.125 62.0818 29.4899 62.0818 27.1526ZM65.9292 29.6103C67.2127 29.6103 68.1019 28.5837 68.1019 27.1526C68.1019 25.7215 67.2094 24.6816 65.9292 24.6816C64.649 24.6816 63.7565 25.7081 63.7565 27.1526C63.7565 28.5971 64.649 29.6103 65.9292 29.6103Z" fill="black"/>
<path d="M70.6155 29.0151L72.0996 28.5302C72.4506 29.4063 73.1793 29.8009 73.8277 29.8009C74.3258 29.8009 75.0143 29.5835 75.0143 28.8947C75.0143 28.2594 74.3926 28.0722 73.8143 27.8949L73.0322 27.6642C72.1698 27.4067 70.9665 26.8684 70.9665 25.4507C70.9665 24.0329 72.2099 23.1669 73.694 23.1669C75.1781 23.1669 76.1776 23.9761 76.5018 25.0427L75.0177 25.5276C74.8138 24.9725 74.3826 24.4743 73.6272 24.4743C73.0188 24.4743 72.5742 24.812 72.5742 25.3236C72.5742 25.999 73.3832 26.2565 74.0182 26.4304L74.64 26.6076C75.382 26.8249 76.7191 27.2162 76.7191 28.7275C76.7191 30.1453 75.5859 31.1183 73.8444 31.1183C72.1965 31.1183 70.9965 30.269 70.6188 29.0117L70.6155 29.0151Z" fill="black"/>
<path d="M80.8338 29.0151L82.3179 28.5302C82.6689 29.4063 83.3976 29.8009 84.046 29.8009C84.5441 29.8009 85.2326 29.5835 85.2326 28.8947C85.2326 28.2594 84.6109 28.0722 84.0326 27.8949L83.2505 27.6642C82.3881 27.4067 81.1848 26.8684 81.1848 25.4507C81.1848 24.0329 82.4282 23.1669 83.9123 23.1669C85.3964 23.1669 86.3959 23.9761 86.7201 25.0427L85.236 25.5276C85.0321 24.9725 84.6009 24.4743 83.8455 24.4743C83.2371 24.4743 82.7926 24.812 82.7926 25.3236C82.7926 25.999 83.6015 26.2565 84.2366 26.4304L84.8583 26.6076C85.6003 26.8249 86.9374 27.2162 86.9374 28.7275C86.9374 30.1453 85.8042 31.1183 84.0627 31.1183C82.4148 31.1183 81.2148 30.269 80.8371 29.0117L80.8338 29.0151Z" fill="black"/>
<path d="M87.8967 27.1526C87.8967 24.8153 89.4777 23.1669 91.744 23.1669C94.0103 23.1669 95.578 24.8153 95.578 27.1526C95.578 29.4899 94.0103 31.125 91.744 31.125C89.4777 31.125 87.8967 29.4899 87.8967 27.1526ZM91.744 29.6103C93.0276 29.6103 93.9167 28.5837 93.9167 27.1526C93.9167 25.7215 93.0242 24.6816 91.744 24.6816C90.4638 24.6816 89.5713 25.7081 89.5713 27.1526C89.5713 28.5971 90.4638 29.6103 91.744 29.6103Z" fill="black"/>
<path d="M97.6036 28.5437V24.8288H96.1195V23.3843H97.6036V21.2242H99.2114V23.3843H101.317V24.8288H99.2114V27.9886C99.2114 28.731 99.2114 29.6639 100.238 29.6639C100.589 29.6639 100.966 29.5569 101.317 29.3663V30.8108C100.939 31.0281 100.425 31.1217 99.9267 31.1217C97.6036 31.1217 97.6036 29.3395 97.6036 28.5437Z" fill="black"/>
<path d="M102.18 29.0017C102.18 27.584 103.339 27.0155 104.69 26.7313C106.284 26.3936 106.959 26.3401 106.959 25.6379C106.959 25.0026 106.418 24.4776 105.556 24.4776C104.8 24.4776 104.178 24.909 103.921 25.7884L102.424 25.2734C102.882 23.7487 104.232 23.1669 105.636 23.1669C107.337 23.1669 108.594 24.0162 108.594 25.7884V28.5436C108.594 29.7875 108.688 30.2991 108.838 30.8943H107.23C107.123 30.5164 107.083 30.1653 107.083 29.734H107.056C106.639 30.5699 105.76 31.125 104.666 31.125C103.383 31.125 102.183 30.4362 102.183 29.0051L102.18 29.0017ZM105.094 29.8778C106.254 29.8778 106.97 28.8512 106.97 28.0153V27.2864C106.578 27.4903 105.997 27.6508 105.419 27.7712C104.743 27.9183 103.934 28.2159 103.934 28.9449C103.934 29.5401 104.406 29.8778 105.094 29.8778Z" fill="black"/>
<path d="M115.924 29.6772C115.316 30.6368 114.413 31.1216 113.374 31.1216C111.388 31.1216 110.038 29.3662 110.038 27.1091C110.038 24.6916 111.576 23.1669 113.454 23.1669C114.587 23.1669 115.453 23.7219 115.924 24.5445H115.951V23.3842H117.519V33.8635H115.924V29.6772ZM113.818 29.5969C115.035 29.5969 115.951 28.5704 115.951 27.1259C115.951 25.6814 115.018 24.6816 113.805 24.6816C112.592 24.6816 111.699 25.7081 111.699 27.1392C111.699 28.5704 112.575 29.5969 113.818 29.5969Z" fill="black"/>
<path d="M119.447 28.099V23.3843H121.055V27.5305C121.055 28.9081 121.677 29.6103 122.61 29.6103C123.743 29.6103 124.391 28.5972 124.391 27.477V23.3843H125.999V28.5437C125.999 29.8009 126.092 30.2991 126.243 30.8943H124.648C124.542 30.4496 124.485 30.1119 124.485 29.8411H124.458C124 30.6502 123.258 31.125 122.148 31.125C120.597 31.125 119.447 30.1921 119.447 28.099Z" fill="black"/>
<path d="M127.52 27.166C127.52 24.8555 129.074 23.1669 131.26 23.1669C133.002 23.1669 134.823 24.2603 134.823 27.0958V27.5672H129.141C129.261 28.9047 130.194 29.6872 131.37 29.6872C132.303 29.6872 133.032 29.1321 133.383 28.2694L134.88 28.8646C134.369 30.1887 133.072 31.1216 131.37 31.1216C129.171 31.1216 127.523 29.5534 127.523 27.166H127.52ZM133.202 26.4237C133.095 25.0594 132.176 24.5478 131.243 24.5478C130.137 24.5478 129.408 25.3169 129.218 26.4237H133.202Z" fill="black"/>
<path d="M135.716 29.0151L137.2 28.5302C137.551 29.4063 138.28 29.8009 138.928 29.8009C139.426 29.8009 140.115 29.5835 140.115 28.8947C140.115 28.2594 139.493 28.0722 138.915 27.8949L138.133 27.6642C137.27 27.4067 136.067 26.8684 136.067 25.4507C136.067 24.0329 137.31 23.1669 138.794 23.1669C140.278 23.1669 141.278 23.9761 141.602 25.0427L140.118 25.5276C139.914 24.9725 139.483 24.4743 138.727 24.4743C138.119 24.4743 137.675 24.812 137.675 25.3236C137.675 25.999 138.483 26.2565 139.119 26.4304L139.74 26.6076C140.482 26.8249 141.819 27.2162 141.819 28.7275C141.819 30.1453 140.686 31.1183 138.945 31.1183C137.297 31.1183 136.097 30.269 135.719 29.0117L135.716 29.0151Z" fill="black"/>
<path d="M21.7668 44.9481H21.7401V46.095H20.1724V35.2914H21.7668V39.8155C22.3886 38.8291 23.291 38.371 24.3306 38.371C26.3562 38.371 27.6531 40.1131 27.6531 42.3266C27.6531 44.7977 26.0587 46.3258 24.2236 46.3258C23.1039 46.3258 22.2248 45.7439 21.7668 44.9481ZM23.886 44.8144C25.1128 44.8144 25.9919 43.7745 25.9919 42.3567C25.9919 40.939 25.1128 39.8857 23.8727 39.8857C22.6326 39.8857 21.7401 40.9256 21.7401 42.3567C21.7401 43.7879 22.6727 44.8144 23.886 44.8144Z" fill="black"/>
<path d="M29.1807 38.5883H30.7484V39.8589H30.8019C31.1796 39.0363 31.9751 38.3743 33.0147 38.3743C33.2587 38.3743 33.4993 38.401 33.7701 38.508V40.2903C33.486 40.1833 33.0949 40.1431 32.8509 40.1431C31.1495 40.1431 30.7718 41.7515 30.7718 42.9786V46.0983H29.1774V38.5883H29.1807Z" fill="black"/>
<path d="M34.2414 44.2058C34.2414 42.788 35.4013 42.2196 36.7517 41.9354C38.3461 41.5977 39.0213 41.5442 39.0213 40.842C39.0213 40.2067 38.4798 39.6817 37.6174 39.6817C36.862 39.6817 36.2403 40.1131 35.9829 40.9925L34.4854 40.4775C34.9433 38.9528 36.2937 38.371 37.6976 38.371C39.399 38.371 40.6558 39.2203 40.6558 40.9925V43.7477C40.6558 44.9916 40.7494 45.5032 40.8998 46.0984H39.292C39.1851 45.7205 39.145 45.3694 39.145 44.9381H39.1182C38.7004 45.774 37.8213 46.3291 36.7283 46.3291C35.4447 46.3291 34.2447 45.6403 34.2447 44.2091L34.2414 44.2058ZM37.1561 45.0819C38.316 45.0819 39.0313 44.0553 39.0313 43.2194V42.4905C38.6402 42.6944 38.0586 42.8549 37.4804 42.9753C36.8052 43.1224 35.9963 43.42 35.9963 44.149C35.9963 44.7441 36.4676 45.0819 37.1561 45.0819Z" fill="black"/>
<path d="M41.9227 44.2192L43.4068 43.7343C43.7578 44.6104 44.4864 45.005 45.1349 45.005C45.633 45.005 46.3215 44.7876 46.3215 44.0988C46.3215 43.4635 45.6998 43.2762 45.1215 43.099L44.3394 42.8683C43.477 42.6108 42.2736 42.0725 42.2736 40.6547C42.2736 39.237 43.5171 38.371 45.0012 38.371C46.4853 38.371 47.4847 39.1802 47.809 40.2468L46.3249 40.7317C46.121 40.1766 45.6898 39.6784 44.9343 39.6784C44.326 39.6784 43.8814 40.0161 43.8814 40.5277C43.8814 41.2031 44.6903 41.4606 45.3254 41.6345L45.9472 41.8117C46.6892 42.029 48.0262 42.4202 48.0262 43.9316C48.0262 45.3494 46.8931 46.3224 45.1516 46.3224C43.5037 46.3224 42.3037 45.4731 41.926 44.2158L41.9227 44.2192Z" fill="black"/>
<path d="M50.3092 35.1309C50.8908 35.1309 51.3354 35.6023 51.3354 36.1574C51.3354 36.7526 50.8908 37.224 50.3092 37.224C49.7276 37.224 49.2563 36.7526 49.2563 36.1574C49.2563 35.6023 49.7009 35.1309 50.3092 35.1309ZM49.5003 38.5883H51.0947V46.0984H49.5003V38.5883Z" fill="black"/>
<path d="M53.117 35.2914H54.7114V46.095H53.117V35.2914Z" fill="black"/>
<path d="M56.2223 42.3701C56.2223 40.0596 57.7766 38.371 59.9626 38.371C61.7041 38.371 63.5258 39.4644 63.5258 42.2999V42.7713H57.8434C57.9638 44.1088 58.8964 44.8913 60.0729 44.8913C61.0055 44.8913 61.7342 44.3362 62.0852 43.4735L63.5827 44.0687C63.0713 45.3928 61.7743 46.3257 60.0729 46.3257C57.8735 46.3257 56.2256 44.7575 56.2256 42.3701H56.2223ZM61.9047 41.6278C61.7977 40.2635 60.8785 39.7519 59.9459 39.7519C58.8395 39.7519 58.1108 40.521 57.9203 41.6278H61.9047Z" fill="black"/>
<path d="M65.9024 35.1309C66.484 35.1309 66.9286 35.6023 66.9286 36.1574C66.9286 36.7526 66.484 37.224 65.9024 37.224C65.3208 37.224 64.8495 36.7526 64.8495 36.1574C64.8495 35.6023 65.2941 35.1309 65.9024 35.1309ZM65.0935 38.5883H66.6879V46.0984H65.0935V38.5883Z" fill="black"/>
<path d="M68.7102 38.5883H70.2779V39.8589H70.3314C70.7091 39.0363 71.5046 38.3743 72.5442 38.3743C72.7882 38.3743 73.0288 38.401 73.2996 38.508V40.2903C73.0155 40.1833 72.6244 40.1431 72.3804 40.1431C70.679 40.1431 70.3013 41.7515 70.3013 42.9786V46.0983H68.7069V38.5883H68.7102Z" fill="black"/>
<path d="M73.7308 42.3567C73.7308 40.0194 75.3118 38.371 77.5781 38.371C79.8444 38.371 81.4121 40.0194 81.4121 42.3567C81.4121 44.694 79.8444 46.3291 77.5781 46.3291C75.3118 46.3291 73.7308 44.694 73.7308 42.3567ZM77.5781 44.8144C78.8617 44.8144 79.7508 43.7878 79.7508 42.3567C79.7508 40.9256 78.8583 39.8857 77.5781 39.8857C76.2979 39.8857 75.4054 40.9122 75.4054 42.3567C75.4054 43.8012 76.2979 44.8144 77.5781 44.8144Z" fill="black"/>
<path d="M82.2644 44.2192L83.7485 43.7343C84.0995 44.6104 84.8282 45.005 85.4766 45.005C85.9747 45.005 86.6633 44.7876 86.6633 44.0988C86.6633 43.4635 86.0416 43.2762 85.4633 43.099L84.6811 42.8683C83.8187 42.6108 82.6154 42.0725 82.6154 40.6547C82.6154 39.237 83.8588 38.371 85.343 38.371C86.8271 38.371 87.8265 39.1802 88.1507 40.2468L86.6666 40.7317C86.4627 40.1766 86.0315 39.6784 85.2761 39.6784C84.6677 39.6784 84.2232 40.0161 84.2232 40.5277C84.2232 41.2031 85.0321 41.4606 85.6672 41.6345L86.2889 41.8117C87.0309 42.029 88.368 42.4202 88.368 43.9316C88.368 45.3494 87.2349 46.3224 85.4934 46.3224C83.8455 46.3224 82.6455 45.4731 82.2678 44.2158L82.2644 44.2192Z" fill="black"/>
<path d="M91.998 38.5883H93.7395C94.4281 40.4374 95.0365 42.2363 95.725 44.2058H95.7518C96.427 42.2329 97.0353 40.4374 97.7105 38.5883H99.4119L96.671 46.0983H94.7523L91.998 38.5883Z" fill="black"/>
<path d="M99.91 42.3567C99.91 40.0194 101.491 38.371 103.757 38.371C106.024 38.371 107.591 40.0194 107.591 42.3567C107.591 44.694 106.024 46.3291 103.757 46.3291C101.491 46.3291 99.91 44.694 99.91 42.3567ZM103.757 44.8144C105.041 44.8144 105.93 43.7878 105.93 42.3567C105.93 40.9256 105.037 39.8857 103.757 39.8857C102.477 39.8857 101.585 40.9122 101.585 42.3567C101.585 43.8012 102.477 44.8144 103.757 44.8144Z" fill="black"/>
<path d="M108.604 42.3567C108.604 39.9258 110.239 38.371 112.425 38.371C113.949 38.371 115.299 39.1534 115.854 40.6547L114.343 41.2633C114.019 40.3304 113.277 39.8857 112.411 39.8857C111.114 39.8857 110.279 40.9523 110.279 42.3433C110.279 43.8547 111.238 44.8144 112.478 44.8144C113.451 44.8144 114.206 44.2326 114.584 43.2896L116.068 43.8714C115.527 45.4229 114.163 46.3291 112.465 46.3291C110.252 46.3291 108.604 44.791 108.604 42.3567Z" fill="black"/>
<path d="M116.827 42.3701C116.827 40.0595 118.381 38.3709 120.567 38.3709C122.309 38.3709 124.13 39.4644 124.13 42.2999V42.7713H118.448C118.568 44.1088 119.501 44.8913 120.677 44.8913C121.61 44.8913 122.339 44.3362 122.69 43.4735L124.187 44.0687C123.672 45.3928 122.379 46.3257 120.677 46.3257C118.478 46.3257 116.83 44.7575 116.83 42.3701H116.827ZM119.688 35.2512H121.389L123.348 37.6687H121.837C121.42 37.2107 120.958 36.7091 120.54 36.2376C120.109 36.7225 119.678 37.1973 119.244 37.6687H117.733L119.691 35.2512H119.688ZM122.509 41.6244C122.402 40.2602 121.483 39.7486 120.55 39.7486C119.444 39.7486 118.715 40.5176 118.525 41.6244H122.509Z" fill="black"/>
<path d="M19.661 57.5607C19.661 55.1298 21.2955 53.575 23.4816 53.575C25.0058 53.575 26.3562 54.3574 26.9111 55.8587L25.4002 56.4673C25.076 55.5344 24.3339 55.0897 23.4682 55.0897C22.1713 55.0897 21.3356 56.1563 21.3356 57.5473C21.3356 59.0587 22.295 60.0184 23.5351 60.0184C24.5078 60.0184 25.2632 59.4366 25.6409 58.4936L27.125 59.0754C26.5835 60.6269 25.2197 61.5331 23.5217 61.5331C21.3089 61.5331 19.661 59.9949 19.661 57.5607Z" fill="black"/>
<path d="M27.8838 57.5607C27.8838 55.2234 29.4648 53.575 31.7311 53.575C33.9974 53.575 35.5651 55.2234 35.5651 57.5607C35.5651 59.898 33.9974 61.5331 31.7311 61.5331C29.4648 61.5331 27.8838 59.898 27.8838 57.5607ZM31.7311 60.0184C33.0147 60.0184 33.9038 58.9918 33.9038 57.5607C33.9038 56.1296 33.0113 55.0897 31.7311 55.0897C30.4509 55.0897 29.5584 56.1162 29.5584 57.5607C29.5584 59.0052 30.4509 60.0184 31.7311 60.0184Z" fill="black"/>
<path d="M37.0893 53.7923H38.657V54.9927H38.6837C39.2519 54.0063 40.1544 53.575 41.1138 53.575C42.4775 53.575 43.7745 54.4543 43.7745 56.5743V61.3024H42.1667V57.2765C42.1667 56.0326 41.7087 55.0897 40.5589 55.0897C39.4792 55.0897 38.6837 55.9256 38.6837 57.33V61.3024H37.0893V53.7923Z" fill="black"/>
<path d="M45.0279 59.4232L46.5121 58.9383C46.863 59.8144 47.5917 60.209 48.2402 60.209C48.7382 60.209 49.4268 59.9916 49.4268 59.3028C49.4268 58.6675 48.8051 58.4802 48.2268 58.303L47.4446 58.0723C46.5822 57.8148 45.3789 57.2765 45.3789 55.8587C45.3789 54.441 46.6224 53.575 48.1065 53.575C49.5906 53.575 50.59 54.3841 50.9142 55.4508L49.4301 55.9356C49.2262 55.3806 48.795 54.8823 48.0396 54.8823C47.4313 54.8823 46.9867 55.2201 46.9867 55.7317C46.9867 56.4071 47.7956 56.6646 48.4307 56.8385L49.0524 57.0157C49.7945 57.233 51.1315 57.6242 51.1315 59.1356C51.1315 60.5534 49.9984 61.5264 48.2569 61.5264C46.609 61.5264 45.409 60.6771 45.0313 59.4198L45.0279 59.4232Z" fill="black"/>
<path d="M52.0908 57.5741C52.0908 55.2636 53.6451 53.575 55.8312 53.575C57.5727 53.575 59.3944 54.6684 59.3944 57.5039V57.9753H53.712C53.8323 59.3128 54.7649 60.0953 55.9415 60.0953C56.8741 60.0953 57.6028 59.5402 57.9537 58.6775L59.4512 59.2727C58.9365 60.5968 57.6429 61.5297 55.9415 61.5297C53.7421 61.5297 52.0942 59.9615 52.0942 57.5741H52.0908ZM57.7732 56.8318C57.6663 55.4675 56.7471 54.9559 55.8145 54.9559C54.7081 54.9559 53.9794 55.725 53.7889 56.8318H57.7732Z" fill="black"/>
<path d="M60.7582 62.3255L62.2156 61.7972C62.5665 62.6766 63.215 63.1214 64.2278 63.1214C65.498 63.1214 66.3336 62.379 66.3336 60.4865V59.9749H66.3069C65.7654 60.8944 64.8629 61.2723 63.9169 61.2723C61.7309 61.2723 60.4607 59.5168 60.4607 57.4236C60.4607 55.1666 61.9314 53.575 63.8635 53.575C65.01 53.575 65.8623 54.13 66.3336 54.9526H66.3604V53.7923H67.9414V60.4898C67.9414 63.5427 66.2267 64.489 64.2813 64.489C62.8774 64.489 61.3933 64.0309 60.7582 62.3289V62.3255ZM64.2278 59.7475C65.4579 59.7475 66.3737 58.7076 66.3737 57.3969C66.3737 56.0861 65.4412 55.0863 64.2278 55.0863C63.0144 55.0863 62.122 56.0995 62.122 57.3969C62.122 58.6942 62.9977 59.7475 64.2278 59.7475Z" fill="black"/>
<path d="M69.8701 58.507V53.7924H71.4779V57.9386C71.4779 59.3162 72.0996 60.0184 73.0322 60.0184C74.1653 60.0184 74.8138 59.0053 74.8138 57.8851V53.7924H76.4216V58.9518C76.4216 60.209 76.5152 60.7072 76.6656 61.3024H75.0712C74.9642 60.8577 74.9074 60.52 74.9074 60.2491H74.8806C74.4227 61.0583 73.6806 61.5331 72.5709 61.5331C71.0199 61.5331 69.8701 60.6002 69.8701 58.507Z" fill="black"/>
<path d="M77.9458 57.5741C77.9458 55.2636 79.5001 53.575 81.6862 53.575C83.4277 53.575 85.2494 54.6684 85.2494 57.5039V57.9753H79.5669C79.6873 59.3128 80.6199 60.0953 81.7965 60.0953C82.729 60.0953 83.4577 59.5402 83.8087 58.6775L85.3062 59.2727C84.7948 60.5968 83.4978 61.5297 81.7965 61.5297C79.597 61.5297 77.9491 59.9615 77.9491 57.5741H77.9458ZM83.6282 56.8318C83.5212 55.4675 82.602 54.9559 81.6694 54.9559C80.563 54.9559 79.8344 55.725 79.6438 56.8318H83.6282Z" fill="black"/>
<path d="M90.9451 50.3348C91.5267 50.3348 91.9713 50.8063 91.9713 51.3614C91.9713 51.9566 91.5267 52.428 90.9451 52.428C90.3635 52.428 89.8922 51.9566 89.8922 51.3614C89.8922 50.8063 90.3368 50.3348 90.9451 50.3348ZM90.1362 53.7923H91.7306V61.3023H90.1362V53.7923Z" fill="black"/>
<path d="M93.2682 57.5473C93.2682 55.0897 94.7925 53.575 96.6844 53.575C97.8041 53.575 98.6431 54.13 99.1144 54.9258H99.1412V50.4954H100.749V58.9484C100.749 60.2056 100.843 60.7038 100.993 61.299H99.3985C99.2916 60.8543 99.2381 60.5166 99.2515 60.1789H99.2247C98.6565 61.1118 97.6871 61.5297 96.7011 61.5297C94.622 61.5297 93.2716 59.8545 93.2716 57.544L93.2682 57.5473ZM97.0353 60.005C98.2654 60.005 99.1813 58.9785 99.1813 57.534C99.1813 56.0895 98.2353 55.0897 97.0353 55.0897C95.8353 55.0897 94.9295 56.1162 94.9295 57.5473C94.9295 58.9785 95.7919 60.005 97.0353 60.005Z" fill="black"/>
<path d="M102.273 57.5741C102.273 55.2636 103.827 53.575 106.014 53.575C107.755 53.575 109.577 54.6684 109.577 57.5039V57.9753H103.894C104.015 59.3128 104.947 60.0953 106.124 60.0953C107.056 60.0953 107.785 59.5402 108.136 58.6775L109.634 59.2727C109.122 60.5968 107.825 61.5297 106.124 61.5297C103.924 61.5297 102.277 59.9615 102.277 57.5741H102.273ZM107.956 56.8318C107.849 55.4675 106.929 54.9559 105.997 54.9559C104.89 54.9559 104.162 55.725 103.971 56.8318H107.956Z" fill="black"/>
<path d="M111.144 53.7923H112.712V54.9927H112.739C113.307 54.0063 114.21 53.575 115.169 53.575C116.533 53.575 117.83 54.4543 117.83 56.5743V61.3024H116.222V57.2765C116.222 56.0326 115.764 55.0897 114.614 55.0897C113.534 55.0897 112.739 55.9256 112.739 57.33V61.3024H111.144V53.7923Z" fill="black"/>
<path d="M120.296 58.9517V55.2368H118.812V53.7923H120.296V51.6322H121.904V53.7923H124.01V55.2368H121.904V58.3966C121.904 59.1389 121.904 60.0718 122.93 60.0718C123.281 60.0718 123.659 59.9648 124.01 59.7742V61.2187C123.632 61.4361 123.118 61.5297 122.62 61.5297C120.296 61.5297 120.296 59.7475 120.296 58.9517Z" fill="black"/>
<path d="M126.196 50.3348C126.778 50.3348 127.222 50.8063 127.222 51.3614C127.222 51.9566 126.778 52.428 126.196 52.428C125.614 52.428 125.143 51.9566 125.143 51.3614C125.143 50.8063 125.588 50.3348 126.196 50.3348ZM125.387 53.7923H126.982V61.3023H125.387V53.7923Z" fill="black"/>
<path d="M129.479 55.2368H128.359V53.7923H129.479V52.9697C129.479 51.1474 130.411 50.2679 131.882 50.2679C132.26 50.2679 132.758 50.3348 133.165 50.5254V51.8897C132.774 51.6991 132.504 51.6456 132.206 51.6456C131.086 51.6456 131.086 52.428 131.086 53.1302V53.7923H132.948V55.2368H131.086V61.299H129.479V55.2368ZM134.92 50.3348C135.502 50.3348 135.946 50.8063 135.946 51.3614C135.946 51.9565 135.502 52.428 134.92 52.428C134.339 52.428 133.867 51.9565 133.867 51.3614C133.867 50.8063 134.312 50.3348 134.92 50.3348ZM134.111 53.7923H135.706V61.3023H134.111V53.7923Z" fill="black"/>
<path d="M137.213 57.5607C137.213 55.1298 138.848 53.575 141.034 53.575C142.558 53.575 143.909 54.3574 144.463 55.8587L142.953 56.4673C142.628 55.5344 141.886 55.0897 141.021 55.0897C139.724 55.0897 138.888 56.1563 138.888 57.5473C138.888 59.0587 139.847 60.0184 141.087 60.0184C142.06 60.0184 142.815 59.4366 143.193 58.4936L144.677 59.0754C144.136 60.6269 142.772 61.5331 141.074 61.5331C138.861 61.5331 137.213 59.9949 137.213 57.5607Z" fill="black"/>
<path d="M145.436 59.4098C145.436 57.992 146.596 57.4236 147.946 57.1394C149.541 56.8017 150.216 56.7482 150.216 56.046C150.216 55.4107 149.674 54.8857 148.812 54.8857C148.057 54.8857 147.435 55.3171 147.178 56.1965L145.68 55.6815C146.138 54.1568 147.488 53.575 148.892 53.575C150.594 53.575 151.851 54.4243 151.851 56.1965V58.9517C151.851 60.1956 151.944 60.7072 152.095 61.3024H150.487C150.38 60.9245 150.34 60.5734 150.34 60.1421H150.313C149.895 60.978 149.016 61.5331 147.923 61.5331C146.639 61.5331 145.439 60.8443 145.439 59.4131L145.436 59.4098ZM148.351 60.2859C149.511 60.2859 150.226 59.2593 150.226 58.4234V57.6945C149.835 57.8984 149.253 58.0589 148.675 58.1793C148 58.3264 147.191 58.624 147.191 59.353C147.191 59.9481 147.662 60.2859 148.351 60.2859Z" fill="black"/>
<path d="M153.793 53.7924H155.36V55.063H155.414C155.791 54.2404 156.587 53.5784 157.626 53.5784C157.871 53.5784 158.111 53.6051 158.382 53.7121V55.4943C158.098 55.3873 157.707 55.3472 157.463 55.3472C155.761 55.3472 155.384 56.9556 155.384 58.1827V61.3024H153.789V53.7924H153.793Z" fill="black"/>
<path d="M161.18 57.6677C161.18 56.6412 161.842 56.0861 162.814 55.4541C163.463 54.9827 164.125 54.4677 164.125 53.6318C164.125 52.6989 163.369 52.107 162.423 52.107C161.33 52.107 160.531 52.9029 160.531 54.0799C160.531 54.1601 160.531 54.2705 160.545 54.3641L159.02 54.0932C159.007 53.9996 158.994 53.916 158.994 53.8358C158.994 51.7693 160.642 50.5555 162.53 50.5555C164.419 50.5555 165.919 51.649 165.919 53.4847C165.919 54.8623 165.014 55.6314 164.205 56.2399C163.516 56.7415 162.908 57.1461 162.908 57.8616C162.908 58.0255 162.948 58.2395 163.001 58.4435H161.26C161.22 58.186 161.18 57.9151 161.18 57.6744V57.6677ZM162.179 59.2493C162.761 59.2493 163.245 59.7208 163.245 60.3293C163.245 60.9379 162.787 61.396 162.206 61.396C161.624 61.396 161.126 60.8944 161.126 60.3026C161.126 59.7107 161.598 59.2493 162.179 59.2493Z" fill="black"/>
<path d="M19.5841 76.2357H26.3896V77.8006H21.2855V80.5826H26.1189V82.2177H21.2855V85.1903H26.5233V86.7719H19.5841V76.2391V76.2357Z" fill="black"/>
<path d="M27.496 84.8926L28.9801 84.4078C29.3311 85.2839 30.0598 85.6784 30.7083 85.6784C31.2063 85.6784 31.8949 85.4611 31.8949 84.7723C31.8949 84.137 31.2732 83.9497 30.6949 83.7725L29.9127 83.5418C29.0503 83.2843 27.847 82.746 27.847 81.3282C27.847 79.9105 29.0905 79.0444 30.5746 79.0444C32.0587 79.0444 33.0581 79.8536 33.3823 80.9203L31.8982 81.4051C31.6943 80.8501 31.2631 80.3519 30.5077 80.3519C29.8994 80.3519 29.4548 80.6896 29.4548 81.2012C29.4548 81.8766 30.2637 82.1341 30.8988 82.3079L31.5205 82.4852C32.2626 82.7025 33.5996 83.0937 33.5996 84.6051C33.5996 86.0228 32.4665 86.9959 30.725 86.9959C29.0771 86.9959 27.8771 86.1466 27.4994 84.8893L27.496 84.8926Z" fill="black"/>
<path d="M34.3951 84.8926L35.8793 84.4078C36.2302 85.2839 36.9589 85.6784 37.6074 85.6784C38.1054 85.6784 38.794 85.4611 38.794 84.7723C38.794 84.137 38.1723 83.9497 37.594 83.7725L36.8118 83.5418C35.9495 83.2843 34.7461 82.746 34.7461 81.3282C34.7461 79.9105 35.9896 79.0444 37.4737 79.0444C38.9578 79.0444 39.9572 79.8536 40.2814 80.9203L38.7973 81.4051C38.5934 80.8501 38.1622 80.3519 37.4068 80.3519C36.7985 80.3519 36.3539 80.6896 36.3539 81.2012C36.3539 81.8766 37.1628 82.1341 37.7979 82.3079L38.4196 82.4852C39.1617 82.7025 40.4987 83.0937 40.4987 84.6051C40.4987 86.0228 39.3656 86.9959 37.6241 86.9959C35.9762 86.9959 34.7762 86.1466 34.3985 84.8893L34.3951 84.8926Z" fill="black"/>
<path d="M41.4547 83.0436C41.4547 80.733 43.009 79.0444 45.1951 79.0444C46.9365 79.0444 48.7583 80.1378 48.7583 82.9733V83.4448H43.0759C43.1962 84.7823 44.1288 85.5647 45.3054 85.5647C46.2379 85.5647 46.9666 85.0097 47.3176 84.147L48.8151 84.7422C48.3003 86.0663 47.0067 86.9992 45.3054 86.9992C43.1059 86.9992 41.458 85.431 41.458 83.0436H41.4547ZM47.1371 82.3012C47.0301 80.937 46.1109 80.4254 45.1783 80.4254C44.072 80.4254 43.3433 81.1945 43.1527 82.3012H47.1371Z" fill="black"/>
<path d="M54.0128 84.4212V80.7063H52.5287V79.2618H54.0128V77.1017H55.6206V79.2618H57.7264V80.7063H55.6206V83.8661C55.6206 84.6084 55.6206 85.5413 56.6468 85.5413C56.9978 85.5413 57.3755 85.4343 57.7264 85.2437V86.6882C57.3487 86.9056 56.834 86.9992 56.3359 86.9992C54.0128 86.9992 54.0128 85.217 54.0128 84.4212Z" fill="black"/>
<path d="M58.4952 83.0436C58.4952 80.733 60.0495 79.0444 62.2356 79.0444C63.9771 79.0444 65.7988 80.1378 65.7988 82.9733V83.4448H60.1164C60.2367 84.7823 61.1693 85.5647 62.3459 85.5647C63.2785 85.5647 64.0072 85.0097 64.3581 84.147L65.8556 84.7422C65.3409 86.0663 64.0473 86.9992 62.3459 86.9992C60.1465 86.9992 58.4986 85.431 58.4986 83.0436H58.4952ZM64.1776 82.3012C64.0707 80.937 63.1515 80.4254 62.2189 80.4254C61.1125 80.4254 60.3838 81.1945 60.1933 82.3012H64.1776Z" fill="black"/>
<path d="M66.6879 84.8926L68.172 84.4078C68.523 85.2839 69.2517 85.6784 69.9002 85.6784C70.3982 85.6784 71.0868 85.4611 71.0868 84.7723C71.0868 84.137 70.4651 83.9497 69.8868 83.7725L69.1046 83.5418C68.2422 83.2843 67.0389 82.746 67.0389 81.3282C67.0389 79.9105 68.2824 79.0444 69.7665 79.0444C71.2506 79.0444 72.25 79.8536 72.5742 80.9203L71.0901 81.4051C70.8862 80.8501 70.455 80.3519 69.6996 80.3519C69.0913 80.3519 68.6467 80.6896 68.6467 81.2012C68.6467 81.8766 69.4556 82.1341 70.0907 82.3079L70.7124 82.4852C71.4545 82.7025 72.7915 83.0937 72.7915 84.6051C72.7915 86.0228 71.6584 86.9959 69.9169 86.9959C68.269 86.9959 67.069 86.1466 66.6913 84.8893L66.6879 84.8926Z" fill="black"/>
<path d="M74.777 84.4212V80.7063H73.2929V79.2618H74.777V77.1017H76.3848V79.2618H78.4906V80.7063H76.3848V83.8661C76.3848 84.6084 76.3848 85.5413 77.411 85.5413C77.7619 85.5413 78.1396 85.4343 78.4906 85.2437V86.6882C78.1129 86.9056 77.5982 86.9992 77.1001 86.9992C74.777 86.9992 74.777 85.217 74.777 84.4212Z" fill="black"/>
<path d="M79.2594 83.0436C79.2594 80.733 80.8137 79.0444 82.9998 79.0444C84.7413 79.0444 86.563 80.1378 86.563 82.9733V83.4448H80.8806C81.0009 84.7823 81.9335 85.5647 83.1101 85.5647C84.0427 85.5647 84.7713 85.0097 85.1223 84.147L86.6198 84.7422C86.1084 86.0663 84.8115 86.9992 83.1101 86.9992C80.9107 86.9992 79.2628 85.431 79.2628 83.0436H79.2594ZM84.9418 82.3012C84.8349 80.937 83.9157 80.4254 82.9831 80.4254C81.8767 80.4254 81.148 81.1945 80.9574 82.3012H84.9418Z" fill="black"/>
<path d="M91.8142 84.4212V80.7063H90.3301V79.2618H91.8142V77.1017H93.422V79.2618H95.5278V80.7063H93.422V83.8661C93.422 84.6084 93.422 85.5413 94.4482 85.5413C94.7991 85.5413 95.1768 85.4343 95.5278 85.2437V86.6882C95.1501 86.9056 94.6353 86.9992 94.1373 86.9992C91.8142 86.9992 91.8142 85.217 91.8142 84.4212Z" fill="black"/>
<path d="M96.2966 83.0436C96.2966 80.733 97.8509 79.0444 100.037 79.0444C101.778 79.0444 103.6 80.1378 103.6 82.9733V83.4448H97.9178C98.0381 84.7823 98.9707 85.5647 100.147 85.5647C101.08 85.5647 101.809 85.0097 102.16 84.147L103.657 84.7422C103.142 86.0663 101.849 86.9992 100.147 86.9992C97.9478 86.9992 96.2999 85.431 96.2999 83.0436H96.2966ZM101.979 82.3012C101.872 80.937 100.953 80.4254 100.02 80.4254C98.9139 80.4254 98.1852 81.1945 97.9946 82.3012H101.979Z" fill="black"/>
<path d="M105.168 79.2618H106.736V80.4622H106.762C107.304 79.5025 108.233 79.0444 109.152 79.0444C110.071 79.0444 111.057 79.5025 111.449 80.5558H111.475C112.204 79.4223 113.137 79.0444 113.999 79.0444C115.323 79.0444 116.66 79.9774 116.66 82.0438V86.7719H115.052V82.746C115.052 81.4753 114.594 80.5592 113.541 80.5592C112.488 80.5592 111.719 81.3951 111.719 82.7995V86.7719H110.112V82.746C110.112 81.462 109.654 80.5592 108.587 80.5592C107.521 80.5592 106.766 81.3951 106.766 82.7995V86.7719H105.171V79.2618H105.168Z" fill="black"/>
<path d="M125.08 81.6124C126.066 80.9503 127.025 80.2481 127.025 79.1681C127.025 78.2486 126.336 77.5598 125.203 77.5598C123.826 77.5598 123.017 78.5729 123.017 80.0442L121.436 79.7733C121.436 77.5865 123.004 76.0183 125.243 76.0183C127.256 76.0183 128.78 77.2622 128.78 79.1514C128.78 80.6494 127.834 81.5957 126.794 82.3113C125.498 83.2442 124.174 83.7557 123.796 85.1869H128.683V86.7685H121.664V86.5779C121.771 84.0801 122.783 83.1873 125.08 81.6091V81.6124Z" fill="black"/>
<path d="M135.128 77.5999H129.686V76.1554H137.11V77.6266C134.315 80.111 133.155 84.0968 133.155 86.7685H131.36C131.36 84.1068 132.547 80.0007 135.128 77.5999Z" fill="black"/>
<path d="M18.8822 100.083C18.8822 98.6655 20.0421 98.097 21.3925 97.8128C22.9869 97.4751 23.6621 97.4216 23.6621 96.7194C23.6621 96.0841 23.1206 95.5591 22.2582 95.5591C21.5028 95.5591 20.881 95.9905 20.6237 96.8699L19.1262 96.3549C19.5841 94.8302 20.9345 94.2484 22.3384 94.2484C24.0398 94.2484 25.2966 95.0977 25.2966 96.8699V99.6251C25.2966 100.869 25.3902 101.381 25.5406 101.976H23.9328C23.8259 101.598 23.7858 101.247 23.7858 100.816H23.759C23.3412 101.651 22.4621 102.207 21.3691 102.207C20.0855 102.207 18.8855 101.518 18.8855 100.087L18.8822 100.083ZM21.7969 100.959C22.9568 100.959 23.6721 99.9328 23.6721 99.0968V98.3679C23.281 98.5719 22.6994 98.7323 22.1211 98.8527C21.4459 98.9998 20.637 99.2974 20.637 100.026C20.637 100.622 21.1083 100.959 21.7969 100.959ZM23.0805 91.0183H25.0125L22.9601 93.5429H21.5696L23.0805 91.0183Z" fill="black"/>
<path d="M27.1451 99.1771V94.4624H28.7528V98.6086C28.7528 99.9863 29.3746 100.688 30.3071 100.688C31.4403 100.688 32.0887 99.6753 32.0887 98.5551V94.4624H33.6965V99.6218C33.6965 100.879 33.7901 101.377 33.9405 101.972H32.3461C32.2392 101.528 32.1823 101.19 32.1823 100.919H32.1556C31.6977 101.728 30.9556 102.203 29.8459 102.203C28.2949 102.203 27.1451 101.27 27.1451 99.1771Z" fill="black"/>
<path d="M35.2442 98.2208C35.2442 95.7631 36.7684 94.2484 38.6603 94.2484C39.7801 94.2484 40.6191 94.8035 41.0904 95.5993H41.1171V91.1688H42.7249V99.6218C42.7249 100.879 42.8185 101.377 42.9689 101.972H41.3745C41.2675 101.528 41.214 101.19 41.2274 100.852H41.2007C40.6324 101.785 39.6631 102.203 38.677 102.203C36.5979 102.203 35.2475 100.528 35.2475 98.2175L35.2442 98.2208ZM39.0113 100.678C40.2413 100.678 41.1572 99.6519 41.1572 98.2074C41.1572 96.7629 40.2113 95.7631 39.0113 95.7631C37.8113 95.7631 36.9054 96.7897 36.9054 98.2208C36.9054 99.6519 37.7678 100.678 39.0113 100.678Z" fill="black"/>
<path d="M45.5728 91.0083C46.1544 91.0083 46.5989 91.4798 46.5989 92.0348C46.5989 92.63 46.1544 93.1015 45.5728 93.1015C44.9912 93.1015 44.5199 92.63 44.5199 92.0348C44.5199 91.4798 44.9644 91.0083 45.5728 91.0083ZM44.7639 94.4657H46.3583V101.976H44.7639V94.4657Z" fill="black"/>
<path d="M47.8691 98.2342C47.8691 95.8969 49.4502 94.2484 51.7165 94.2484C53.9827 94.2484 55.5504 95.8969 55.5504 98.2342C55.5504 100.571 53.9827 102.207 51.7165 102.207C49.4502 102.207 47.8691 100.571 47.8691 98.2342ZM51.7165 100.692C53 100.692 53.8892 99.6653 53.8892 98.2342C53.8892 96.803 52.9967 95.7631 51.7165 95.7631C50.4363 95.7631 49.5438 96.7897 49.5438 98.2342C49.5438 99.6787 50.4363 100.692 51.7165 100.692Z" fill="black"/>
<path d="M56.4028 100.097L57.8869 99.6118C58.2379 100.488 58.9665 100.882 59.615 100.882C60.113 100.882 60.8016 100.665 60.8016 99.9763C60.8016 99.3409 60.1799 99.1537 59.6016 98.9765L58.8195 98.7458C57.9571 98.4883 56.7537 97.9499 56.7537 96.5322C56.7537 95.1144 57.9972 94.2484 59.4813 94.2484C60.9654 94.2484 61.9648 95.0576 62.2891 96.1243L60.805 96.6091C60.6011 96.054 60.1699 95.5558 59.4145 95.5558C58.8061 95.5558 58.3615 95.8935 58.3615 96.4051C58.3615 97.0806 59.1704 97.338 59.8055 97.5119L60.4273 97.6891C61.1693 97.9065 62.5063 98.2977 62.5063 99.8091C62.5063 101.227 61.3732 102.2 59.6317 102.2C57.9838 102.2 56.7838 101.351 56.4061 100.093L56.4028 100.097Z" fill="black"/>
<path d="M67.7676 95.9102H66.6478V94.4657H67.7676V93.6432C67.7676 91.8208 68.7002 90.9414 70.1709 90.9414C70.5486 90.9414 71.0467 91.0083 71.4545 91.1989V92.5631C71.0634 92.3725 70.7926 92.319 70.4951 92.319C69.3754 92.319 69.3754 93.1015 69.3754 93.8037V94.4657H71.2372V95.9102H69.3754V101.972H67.7676V95.9102Z" fill="black"/>
<path d="M71.6584 100.083C71.6584 98.6655 72.8182 98.0971 74.1687 97.8128C75.7631 97.4751 76.4383 97.4216 76.4383 96.7194C76.4383 96.0841 75.8968 95.5592 75.0344 95.5592C74.279 95.5592 73.6572 95.9905 73.3999 96.8699L71.9024 96.355C72.3603 94.8302 73.7107 94.2484 75.1146 94.2484C76.816 94.2484 78.0728 95.0977 78.0728 96.8699V99.6251C78.0728 100.869 78.1664 101.381 78.3168 101.976H76.709C76.6021 101.598 76.5619 101.247 76.5619 100.816H76.5352C76.1174 101.651 75.2383 102.207 74.1453 102.207C72.8617 102.207 71.6617 101.518 71.6617 100.087L71.6584 100.083ZM74.5731 100.959C75.733 100.959 76.4483 99.9328 76.4483 99.0969V98.3679C76.0572 98.5719 75.4756 98.7324 74.8973 98.8527C74.2221 98.9999 73.4132 99.2975 73.4132 100.026C73.4132 100.622 73.8845 100.959 74.5731 100.959Z" fill="black"/>
<path d="M80.0148 91.1688H81.6093V101.972H80.0148V91.1688Z" fill="black"/>
<path d="M83.1201 100.083C83.1201 98.6655 84.28 98.0971 85.6304 97.8128C87.2248 97.4751 87.9 97.4216 87.9 96.7194C87.9 96.0841 87.3585 95.5592 86.4961 95.5592C85.7407 95.5592 85.119 95.9905 84.8616 96.8699L83.3641 96.355C83.8221 94.8302 85.1725 94.2484 86.5764 94.2484C88.2777 94.2484 89.5346 95.0977 89.5346 96.8699V99.6251C89.5346 100.869 89.6281 101.381 89.7786 101.976H88.1708C88.0638 101.598 88.0237 101.247 88.0237 100.816H87.997C87.5791 101.651 86.7 102.207 85.607 102.207C84.3235 102.207 83.1235 101.518 83.1235 100.087L83.1201 100.083ZM86.0349 100.959C87.1947 100.959 87.9101 99.9328 87.9101 99.0969V98.3679C87.519 98.5719 86.9374 98.7324 86.3591 98.8527C85.6839 98.9999 84.875 99.2975 84.875 100.026C84.875 100.622 85.3463 100.959 86.0349 100.959Z" fill="black"/>
<path d="M90.9886 98.2208C90.9886 95.7631 92.5128 94.2484 94.4047 94.2484C95.5245 94.2484 96.3635 94.8035 96.8348 95.5993H96.8615V91.1688H98.4693V99.6218C98.4693 100.879 98.5629 101.377 98.7133 101.972H97.1189C97.0119 101.528 96.9584 101.19 96.9718 100.852H96.9451C96.3768 101.785 95.4075 102.203 94.4214 102.203C92.3423 102.203 90.9919 100.528 90.9919 98.2175L90.9886 98.2208ZM94.7557 100.678C95.9857 100.678 96.9016 99.6519 96.9016 98.2074C96.9016 96.7629 95.9557 95.7631 94.7557 95.7631C93.5557 95.7631 92.6498 96.7897 92.6498 98.2208C92.6498 99.6519 93.5122 100.678 94.7557 100.678Z" fill="black"/>
<path d="M99.9969 98.2342C99.9969 95.8969 101.578 94.2484 103.844 94.2484C106.11 94.2484 107.678 95.8969 107.678 98.2342C107.678 100.571 106.11 102.207 103.844 102.207C101.578 102.207 99.9969 100.571 99.9969 98.2342ZM103.844 100.692C105.128 100.692 106.017 99.6653 106.017 98.2342C106.017 96.803 105.124 95.7631 103.844 95.7631C102.564 95.7631 101.671 96.7897 101.671 98.2342C101.671 99.6787 102.564 100.692 103.844 100.692Z" fill="black"/>
<path d="M108.527 100.097L110.011 99.6118C110.362 100.488 111.091 100.882 111.739 100.882C112.237 100.882 112.926 100.665 112.926 99.9763C112.926 99.3409 112.304 99.1537 111.726 98.9765L110.944 98.7458C110.081 98.4883 108.878 97.9499 108.878 96.5322C108.878 95.1144 110.122 94.2484 111.606 94.2484C113.09 94.2484 114.089 95.0576 114.413 96.1243L112.929 96.6091C112.725 96.054 112.294 95.5558 111.539 95.5558C110.93 95.5558 110.486 95.8935 110.486 96.4051C110.486 97.0806 111.295 97.338 111.93 97.5119L112.552 97.6891C113.294 97.9065 114.631 98.2977 114.631 99.8091C114.631 101.227 113.498 102.2 111.756 102.2C110.108 102.2 108.908 101.351 108.531 100.093L108.527 100.097Z" fill="black"/>
<path d="M119.424 94.4658H120.992V95.7231H121.018C121.68 94.6965 122.556 94.2518 123.582 94.2518C125.608 94.2518 126.905 95.9939 126.905 98.1941C126.905 100.679 125.31 102.207 123.475 102.207C122.302 102.207 121.476 101.585 121.018 100.842V104.948H119.424V94.4692V94.4658ZM123.138 100.692C124.364 100.692 125.243 99.652 125.243 98.2342C125.243 96.8165 124.351 95.7632 123.138 95.7632C121.924 95.7632 120.992 96.7764 120.992 98.2342C120.992 99.6921 121.924 100.692 123.138 100.692Z" fill="black"/>
<path d="M127.914 98.2342C127.914 95.8969 129.495 94.2484 131.762 94.2484C134.028 94.2484 135.595 95.8969 135.595 98.2342C135.595 100.571 134.028 102.207 131.762 102.207C129.495 102.207 127.914 100.571 127.914 98.2342ZM131.762 100.692C133.045 100.692 133.934 99.6653 133.934 98.2342C133.934 96.803 133.042 95.7631 131.762 95.7631C130.481 95.7631 129.589 96.7897 129.589 98.2342C129.589 99.6787 130.481 100.692 131.762 100.692Z" fill="black"/>
<path d="M137.123 94.4658H138.691V95.7365H138.744C139.122 94.9139 139.917 94.2518 140.957 94.2518C141.201 94.2518 141.442 94.2786 141.712 94.3856V96.1678C141.428 96.0608 141.037 96.0207 140.793 96.0207C139.092 96.0207 138.714 97.629 138.714 98.8562V101.976H137.12V94.4658H137.123Z" fill="black"/>
<path d="M19.3936 109.67H20.9613V110.927H20.988C21.6498 109.901 22.5256 109.456 23.5518 109.456C25.5774 109.456 26.8743 111.198 26.8743 113.398C26.8743 115.883 25.2799 117.411 23.4448 117.411C22.2716 117.411 21.4459 116.789 20.988 116.046V120.152H19.3936V109.673V109.67ZM23.1072 115.896C24.3339 115.896 25.213 114.856 25.213 113.438C25.213 112.02 24.3206 110.967 23.1072 110.967C21.8938 110.967 20.9613 111.98 20.9613 113.438C20.9613 114.896 21.8938 115.896 23.1072 115.896Z" fill="black"/>
<path d="M27.8871 113.452C27.8871 111.141 29.4414 109.453 31.6275 109.453C33.369 109.453 35.1907 110.546 35.1907 113.381V113.853H29.5083C29.6286 115.19 30.5612 115.973 31.7378 115.973C32.6704 115.973 33.3991 115.418 33.75 114.555L35.2475 115.15C34.7361 116.474 33.4392 117.407 31.7378 117.407C29.5384 117.407 27.8905 115.839 27.8905 113.452H27.8871ZM33.5695 112.709C33.4626 111.345 32.5433 110.833 31.6108 110.833C30.5044 110.833 29.7757 111.603 29.5851 112.709H33.5695Z" fill="black"/>
<path d="M36.0831 115.301L37.5673 114.816C37.9182 115.692 38.6469 116.087 39.2954 116.087C39.7934 116.087 40.482 115.869 40.482 115.18C40.482 114.545 39.8603 114.358 39.282 114.181L38.4998 113.95C37.6375 113.692 36.4341 113.154 36.4341 111.736C36.4341 110.319 37.6776 109.453 39.1617 109.453C40.6458 109.453 41.6452 110.262 41.9695 111.328L40.4853 111.813C40.2814 111.258 39.8503 110.76 39.0948 110.76C38.4865 110.76 38.0419 111.098 38.0419 111.609C38.0419 112.285 38.8508 112.542 39.4859 112.716L40.1076 112.893C40.8497 113.111 42.1867 113.502 42.1867 115.013C42.1867 116.431 41.0536 117.404 39.3121 117.404C37.6642 117.404 36.4642 116.555 36.0865 115.297L36.0831 115.301Z" fill="black"/>
<path d="M42.9823 115.301L44.4664 114.816C44.8174 115.692 45.546 116.087 46.1945 116.087C46.6925 116.087 47.3811 115.869 47.3811 115.18C47.3811 114.545 46.7594 114.358 46.1811 114.181L45.399 113.95C44.5366 113.692 43.3332 113.154 43.3332 111.736C43.3332 110.319 44.5767 109.453 46.0608 109.453C47.5449 109.453 48.5443 110.262 48.8686 111.328L47.3845 111.813C47.1806 111.258 46.7494 110.76 45.9939 110.76C45.3856 110.76 44.941 111.098 44.941 111.609C44.941 112.285 45.7499 112.542 46.385 112.716L47.0068 112.893C47.7488 113.111 49.0858 113.502 49.0858 115.013C49.0858 116.431 47.9527 117.404 46.2112 117.404C44.5633 117.404 43.3633 116.555 42.9856 115.297L42.9823 115.301Z" fill="black"/>
<path d="M50.0418 113.435C50.0418 111.098 51.6229 109.449 53.8891 109.449C56.1554 109.449 57.7231 111.098 57.7231 113.435C57.7231 115.772 56.1554 117.407 53.8891 117.407C51.6229 117.407 50.0418 115.772 50.0418 113.435ZM53.8891 115.893C55.1727 115.893 56.0618 114.866 56.0618 113.435C56.0618 112.004 55.1693 110.964 53.8891 110.964C52.6089 110.964 51.7165 111.99 51.7165 113.435C51.7165 114.879 52.6089 115.893 53.8891 115.893Z" fill="black"/>
<path d="M58.7359 115.287C58.7359 113.87 59.8958 113.301 61.2462 113.017C62.8406 112.679 63.5158 112.626 63.5158 111.924C63.5158 111.288 62.9743 110.763 62.1119 110.763C61.3565 110.763 60.7348 111.195 60.4774 112.074L58.9799 111.559C59.4378 110.034 60.7883 109.453 62.1921 109.453C63.8935 109.453 65.1503 110.302 65.1503 112.074V114.829C65.1503 116.073 65.2439 116.585 65.3943 117.18H63.7866C63.6796 116.802 63.6395 116.451 63.6395 116.02H63.6127C63.1949 116.856 62.3158 117.411 61.2228 117.411C59.9392 117.411 58.7392 116.722 58.7392 115.291L58.7359 115.287ZM61.6506 116.163C62.8105 116.163 63.5258 115.137 63.5258 114.301V113.572C63.1347 113.776 62.5531 113.936 61.9749 114.057C61.2997 114.204 60.4908 114.502 60.4908 115.231C60.4908 115.826 60.9621 116.163 61.6506 116.163Z" fill="black"/>
<path d="M66.4172 115.301L67.9013 114.816C68.2523 115.692 68.9809 116.087 69.6294 116.087C70.1275 116.087 70.816 115.869 70.816 115.18C70.816 114.545 70.1943 114.358 69.616 114.181L68.8339 113.95C67.9715 113.692 66.7682 113.154 66.7682 111.736C66.7682 110.319 68.0116 109.453 69.4957 109.453C70.9798 109.453 71.9793 110.262 72.3035 111.328L70.8194 111.813C70.6155 111.258 70.1843 110.76 69.4289 110.76C68.8205 110.76 68.3759 111.098 68.3759 111.609C68.3759 112.285 69.1848 112.542 69.8199 112.716L70.4417 112.893C71.1837 113.111 72.5208 113.502 72.5208 115.013C72.5208 116.431 71.3876 117.404 69.6461 117.404C67.9982 117.404 66.7982 116.555 66.4205 115.297L66.4172 115.301Z" fill="black"/>
<path d="M77.314 109.67H78.8817V110.87H78.9084C79.4767 109.884 80.3792 109.453 81.3385 109.453C82.7023 109.453 83.9992 110.332 83.9992 112.452V117.18H82.3914V113.154C82.3914 111.91 81.9335 110.967 80.7836 110.967C79.704 110.967 78.9084 111.803 78.9084 113.208V117.18H77.314V109.67Z" fill="black"/>
<path d="M85.4131 115.287C85.4131 113.87 86.573 113.301 87.9234 113.017C89.5178 112.679 90.193 112.626 90.193 111.924C90.193 111.288 89.6515 110.763 88.7891 110.763C88.0337 110.763 87.412 111.195 87.1546 112.074L85.6571 111.559C86.1151 110.034 87.4655 109.453 88.8694 109.453C90.5707 109.453 91.8276 110.302 91.8276 112.074V114.829C91.8276 116.073 91.9212 116.585 92.0716 117.18H90.4638C90.3568 116.802 90.3167 116.451 90.3167 116.02H90.29C89.8721 116.856 88.993 117.411 87.9 117.411C86.6165 117.411 85.4165 116.722 85.4165 115.291L85.4131 115.287ZM88.3279 116.163C89.4877 116.163 90.2031 115.137 90.2031 114.301V113.572C89.812 113.776 89.2304 113.936 88.6521 114.057C87.9769 114.204 87.168 114.502 87.168 115.231C87.168 115.826 87.6393 116.163 88.3279 116.163Z" fill="black"/>
<path d="M94.3111 114.826V111.111H92.827V109.667H94.3111V107.506H95.9189V109.667H98.0247V111.111H95.9189V114.271C95.9189 115.013 95.9189 115.946 96.9451 115.946C97.296 115.946 97.6738 115.839 98.0247 115.648V117.093C97.647 117.31 97.1323 117.404 96.6342 117.404C94.3111 117.404 94.3111 115.622 94.3111 114.826Z" fill="black"/>
<path d="M100.211 106.212C100.792 106.212 101.237 106.684 101.237 107.239C101.237 107.834 100.792 108.306 100.211 108.306C99.6292 108.306 99.1579 107.834 99.1579 107.239C99.1579 106.684 99.6024 106.212 100.211 106.212ZM99.4019 109.67H100.996V117.18H99.4019V109.67Z" fill="black"/>
<path d="M102.129 109.67H103.871C104.559 111.519 105.168 113.318 105.856 115.287H105.883C106.558 113.315 107.167 111.519 107.842 109.67H109.543L106.802 117.18H104.884L102.129 109.67Z" fill="black"/>
<path d="M110.041 115.287C110.041 113.87 111.201 113.301 112.552 113.017C114.146 112.679 114.821 112.626 114.821 111.924C114.821 111.288 114.28 110.763 113.417 110.763C112.662 110.763 112.04 111.195 111.783 112.074L110.285 111.559C110.743 110.034 112.094 109.453 113.498 109.453C115.199 109.453 116.456 110.302 116.456 112.074V114.829C116.456 116.073 116.549 116.585 116.7 117.18H115.092C114.985 116.802 114.945 116.451 114.945 116.02H114.918C114.5 116.856 113.621 117.411 112.528 117.411C111.245 117.411 110.045 116.722 110.045 115.291L110.041 115.287ZM112.956 116.163C114.116 116.163 114.831 115.137 114.831 114.301V113.572C114.44 113.776 113.859 113.936 113.28 114.057C112.605 114.204 111.796 114.502 111.796 115.231C111.796 115.826 112.268 116.163 112.956 116.163Z" fill="black"/>
<path d="M117.723 115.301L119.207 114.816C119.558 115.692 120.286 116.087 120.935 116.087C121.433 116.087 122.121 115.869 122.121 115.18C122.121 114.545 121.5 114.358 120.921 114.181L120.139 113.95C119.277 113.692 118.074 113.154 118.074 111.736C118.074 110.319 119.317 109.453 120.801 109.453C122.285 109.453 123.285 110.262 123.609 111.328L122.125 111.813C121.921 111.258 121.49 110.76 120.734 110.76C120.126 110.76 119.681 111.098 119.681 111.609C119.681 112.285 120.49 112.542 121.125 112.716L121.747 112.893C122.489 113.111 123.826 113.502 123.826 115.013C123.826 116.431 122.693 117.404 120.952 117.404C119.304 117.404 118.104 116.555 117.726 115.297L117.723 115.301Z" fill="black"/>
<path d="M128.131 113.421C128.131 110.964 129.656 109.449 131.548 109.449C132.667 109.449 133.506 110.004 133.978 110.8H134.004V106.37H135.612V114.823C135.612 116.08 135.706 116.578 135.856 117.173H134.262C134.155 116.728 134.101 116.391 134.115 116.053H134.088C133.52 116.986 132.55 117.404 131.564 117.404C129.485 117.404 128.135 115.729 128.135 113.418L128.131 113.421ZM131.899 115.879C133.129 115.879 134.045 114.853 134.045 113.408C134.045 111.964 133.099 110.964 131.899 110.964C130.699 110.964 129.793 111.99 129.793 113.421C129.793 114.853 130.655 115.879 131.899 115.879Z" fill="black"/>
<path d="M137.136 113.452C137.136 111.141 138.691 109.453 140.877 109.453C142.618 109.453 144.44 110.546 144.44 113.381V113.853H138.758C138.878 115.19 139.81 115.973 140.987 115.973C141.92 115.973 142.648 115.418 142.999 114.555L144.497 115.15C143.982 116.474 142.688 117.407 140.987 117.407C138.788 117.407 137.14 115.839 137.14 113.452H137.136ZM142.819 112.709C142.712 111.345 141.793 110.833 140.86 110.833C139.754 110.833 139.025 111.603 138.834 112.709H142.819Z" fill="black"/>
<path d="M18.8822 128.639C18.8822 126.208 20.5167 124.653 22.7028 124.653C24.227 124.653 25.5774 125.436 26.1323 126.937L24.6214 127.545C24.2972 126.613 23.5551 126.168 22.6894 126.168C21.3925 126.168 20.5568 127.234 20.5568 128.625C20.5568 130.137 21.5161 131.096 22.7562 131.096C23.7289 131.096 24.4844 130.515 24.8621 129.572L26.3462 130.154C25.8047 131.705 24.4409 132.611 22.7429 132.611C20.5301 132.611 18.8822 131.073 18.8822 128.639Z" fill="black"/>
<path d="M27.1049 130.491C27.1049 129.074 28.2648 128.505 29.6152 128.221C31.2096 127.883 31.8849 127.83 31.8849 127.128C31.8849 126.492 31.3434 125.967 30.481 125.967C29.7255 125.967 29.1038 126.399 28.8464 127.278L27.349 126.763C27.8069 125.238 29.1573 124.656 30.5612 124.656C32.2626 124.656 33.5194 125.506 33.5194 127.278V130.033C33.5194 131.277 33.613 131.789 33.7634 132.384H32.1556C32.0486 132.006 32.0085 131.655 32.0085 131.224H31.9818C31.564 132.06 30.6849 132.615 29.5918 132.615C28.3083 132.615 27.1083 131.926 27.1083 130.495L27.1049 130.491ZM30.0197 131.367C31.1796 131.367 31.8949 130.341 31.8949 129.505V128.776C31.5038 128.98 30.9222 129.14 30.3439 129.261C29.6687 129.408 28.8598 129.706 28.8598 130.435C28.8598 131.03 29.3311 131.367 30.0197 131.367Z" fill="black"/>
<path d="M34.9734 128.626C34.9734 126.168 36.4976 124.653 38.3895 124.653C39.5093 124.653 40.3483 125.208 40.8196 126.004H40.8463V121.574H42.4541V130.027C42.4541 131.284 42.5477 131.782 42.6981 132.377H41.1037C40.9968 131.933 40.9433 131.595 40.9567 131.257H40.9299C40.3617 132.19 39.3923 132.608 38.4063 132.608C36.3272 132.608 34.9768 130.933 34.9768 128.622L34.9734 128.626ZM38.7405 131.083C39.9706 131.083 40.8865 130.057 40.8865 128.612C40.8865 127.168 39.9405 126.168 38.7405 126.168C37.5405 126.168 36.6347 127.194 36.6347 128.626C36.6347 130.057 37.4971 131.083 38.7405 131.083Z" fill="black"/>
<path d="M43.9783 130.491C43.9783 129.074 45.1382 128.505 46.4886 128.221C48.0831 127.883 48.7583 127.83 48.7583 127.128C48.7583 126.492 48.2168 125.967 47.3544 125.967C46.5989 125.967 45.9772 126.399 45.7198 127.278L44.2224 126.763C44.6803 125.238 46.0307 124.656 47.4346 124.656C49.136 124.656 50.3928 125.506 50.3928 127.278V130.033C50.3928 131.277 50.4864 131.789 50.6368 132.384H49.029C48.922 132.006 48.8819 131.655 48.8819 131.224H48.8552C48.4374 132.06 47.5583 132.615 46.4652 132.615C45.1817 132.615 43.9817 131.926 43.9817 130.495L43.9783 130.491ZM46.8931 131.367C48.053 131.367 48.7683 130.341 48.7683 129.505V128.776C48.3772 128.98 47.7956 129.14 47.2173 129.261C46.5421 129.408 45.7332 129.706 45.7332 130.435C45.7332 131.03 46.2045 131.367 46.8931 131.367Z" fill="black"/>
<path d="M55.146 128.652C55.146 126.342 56.7003 124.653 58.8863 124.653C60.6278 124.653 62.4495 125.746 62.4495 128.582V129.053H56.7671C56.8874 130.391 57.82 131.173 58.9966 131.173C59.9292 131.173 60.6579 130.618 61.0089 129.756L62.5063 130.351C61.9916 131.675 60.698 132.608 58.9966 132.608C56.7972 132.608 55.1493 131.04 55.1493 128.652H55.146ZM60.8284 127.91C60.7214 126.546 59.8022 126.034 58.8696 126.034C57.7632 126.034 57.0345 126.803 56.844 127.91H60.8284Z" fill="black"/>
<path d="M63.3387 130.505L64.8228 130.02C65.1737 130.896 65.9024 131.291 66.5509 131.291C67.0489 131.291 67.7375 131.073 67.7375 130.384C67.7375 129.749 67.1158 129.562 66.5375 129.385L65.7554 129.154C64.893 128.896 63.6896 128.358 63.6896 126.94C63.6896 125.523 64.9331 124.656 66.4172 124.656C67.9013 124.656 68.9007 125.466 69.225 126.532L67.7409 127.017C67.537 126.462 67.1058 125.964 66.3503 125.964C65.742 125.964 65.2974 126.302 65.2974 126.813C65.2974 127.489 66.1063 127.746 66.7414 127.92L67.3631 128.097C68.1052 128.315 69.4422 128.706 69.4422 130.217C69.4422 131.635 68.3091 132.608 66.5676 132.608C64.9197 132.608 63.7197 131.759 63.342 130.501L63.3387 130.505Z" fill="black"/>
<path d="M71.4277 130.03V126.315H69.9436V124.87H71.4277V122.71H73.0355V124.87H75.1413V126.315H73.0355V129.475C73.0355 130.217 73.0355 131.15 74.0617 131.15C74.4127 131.15 74.7904 131.043 75.1413 130.852V132.297C74.7636 132.514 74.2489 132.608 73.7508 132.608C71.4277 132.608 71.4277 130.826 71.4277 130.03Z" fill="black"/>
<path d="M76.0037 130.491C76.0037 129.074 77.1636 128.505 78.514 128.221C80.1084 127.883 80.7836 127.83 80.7836 127.128C80.7836 126.492 80.2421 125.967 79.3797 125.967C78.6243 125.967 78.0026 126.399 77.7452 127.278L76.2477 126.763C76.7057 125.238 78.0561 124.656 79.46 124.656C81.1614 124.656 82.4182 125.506 82.4182 127.278V130.033C82.4182 131.277 82.5118 131.789 82.6622 132.384H81.0544C80.9474 132.006 80.9073 131.655 80.9073 131.224H80.8806C80.4628 132.06 79.5836 132.615 78.4906 132.615C77.2071 132.615 76.0071 131.926 76.0071 130.495L76.0037 130.491ZM78.9185 131.367C80.0783 131.367 80.7937 130.341 80.7937 129.505V128.776C80.4026 128.98 79.821 129.14 79.2427 129.261C78.5675 129.408 77.7586 129.706 77.7586 130.435C77.7586 131.03 78.2299 131.367 78.9185 131.367Z" fill="black"/>
<path d="M83.8755 128.626C83.8755 126.168 85.3998 124.653 87.2917 124.653C88.4114 124.653 89.2504 125.208 89.7217 126.004H89.7485V121.574H91.3563V130.027C91.3563 131.284 91.4499 131.782 91.6003 132.377H90.0059C89.8989 131.933 89.8454 131.595 89.8588 131.257H89.8321C89.2638 132.19 88.2945 132.608 87.3084 132.608C85.2293 132.608 83.8789 130.933 83.8789 128.622L83.8755 128.626ZM87.6427 131.083C88.8727 131.083 89.7886 130.057 89.7886 128.612C89.7886 127.168 88.8426 126.168 87.6427 126.168C86.4427 126.168 85.5368 127.194 85.5368 128.626C85.5368 130.057 86.3992 131.083 87.6427 131.083Z" fill="black"/>
<path d="M92.8805 128.639C92.8805 126.302 94.4615 124.653 96.7278 124.653C98.9941 124.653 100.562 126.302 100.562 128.639C100.562 130.976 98.9941 132.611 96.7278 132.611C94.4615 132.611 92.8805 130.976 92.8805 128.639ZM96.7278 131.096C98.0114 131.096 98.9005 130.07 98.9005 128.639C98.9005 127.208 98.008 126.168 96.7278 126.168C95.4476 126.168 94.5551 127.194 94.5551 128.639C94.5551 130.083 95.4476 131.096 96.7278 131.096Z" fill="black"/>
<path d="M104.924 128.626C104.924 126.168 106.448 124.653 108.34 124.653C109.46 124.653 110.299 125.208 110.77 126.004H110.797V121.574H112.405V130.027C112.405 131.284 112.498 131.782 112.649 132.377H111.054C110.947 131.933 110.894 131.595 110.907 131.257H110.88C110.312 132.19 109.343 132.608 108.357 132.608C106.278 132.608 104.927 130.933 104.927 128.622L104.924 128.626ZM108.691 131.083C109.921 131.083 110.837 130.057 110.837 128.612C110.837 127.168 109.891 126.168 108.691 126.168C107.491 126.168 106.585 127.194 106.585 128.626C106.585 130.057 107.447 131.083 108.691 131.083Z" fill="black"/>
<path d="M113.929 128.639C113.929 126.302 115.51 124.653 117.776 124.653C120.042 124.653 121.61 126.302 121.61 128.639C121.61 130.976 120.042 132.611 117.776 132.611C115.51 132.611 113.929 130.976 113.929 128.639ZM117.776 131.096C119.06 131.096 119.949 130.07 119.949 128.639C119.949 127.208 119.056 126.168 117.776 126.168C116.496 126.168 115.603 127.194 115.603 128.639C115.603 130.083 116.496 131.096 117.776 131.096Z" fill="black"/>
<path d="M126.647 121.848H130.872C132.965 121.848 134.125 123.062 134.125 124.576C134.125 125.589 133.57 126.643 132.383 126.98V127.007C133.653 127.265 134.489 128.154 134.489 129.518C134.489 131.558 132.614 132.381 130.993 132.381H126.644V121.848H126.647ZM130.374 126.332C131.414 126.332 132.346 125.9 132.346 124.887C132.346 123.874 131.347 123.416 130.361 123.416H128.349V126.332H130.374ZM130.618 130.816C131.645 130.816 132.684 130.398 132.684 129.331C132.684 128.264 131.631 127.806 130.605 127.806H128.349V130.819H130.618V130.816Z" fill="black"/>
<path d="M136.057 124.87H137.624V126.141H137.678C138.056 125.319 138.851 124.656 139.891 124.656C140.135 124.656 140.375 124.683 140.646 124.79V126.572C140.362 126.465 139.971 126.425 139.727 126.425C138.026 126.425 137.648 128.034 137.648 129.261V132.381H136.053V124.87H136.057Z" fill="black"/>
<path d="M141.121 130.491C141.121 129.074 142.281 128.505 143.631 128.221C145.225 127.883 145.901 127.83 145.901 127.128C145.901 126.492 145.359 125.967 144.497 125.967C143.741 125.967 143.12 126.399 142.862 127.278L141.365 126.763C141.823 125.238 143.173 124.656 144.577 124.656C146.278 124.656 147.535 125.506 147.535 127.278V130.033C147.535 131.277 147.629 131.789 147.779 132.384H146.171C146.064 132.006 146.024 131.655 146.024 131.224H145.998C145.58 132.06 144.701 132.615 143.608 132.615C142.324 132.615 141.124 131.926 141.124 130.495L141.121 130.491ZM144.036 131.367C145.195 131.367 145.911 130.341 145.911 129.505V128.776C145.52 128.98 144.938 129.14 144.36 129.261C143.685 129.408 142.876 129.706 142.876 130.435C142.876 131.03 143.347 131.367 144.036 131.367Z" fill="black"/>
<path d="M148.802 130.505L150.286 130.02C150.637 130.896 151.366 131.291 152.014 131.291C152.512 131.291 153.201 131.073 153.201 130.384C153.201 129.749 152.579 129.562 152.001 129.385L151.219 129.154C150.356 128.896 149.153 128.358 149.153 126.94C149.153 125.523 150.396 124.656 151.881 124.656C153.365 124.656 154.364 125.466 154.688 126.532L153.204 127.017C153 126.462 152.569 125.964 151.814 125.964C151.205 125.964 150.761 126.302 150.761 126.813C150.761 127.489 151.57 127.746 152.205 127.92L152.827 128.097C153.569 128.315 154.906 128.706 154.906 130.217C154.906 131.635 153.773 132.608 152.031 132.608C150.383 132.608 149.183 131.759 148.805 130.501L148.802 130.505Z" fill="black"/>
<path d="M157.185 121.413C157.767 121.413 158.211 121.885 158.211 122.44C158.211 123.035 157.767 123.506 157.185 123.506C156.604 123.506 156.132 123.035 156.132 122.44C156.132 121.885 156.577 121.413 157.185 121.413ZM156.376 124.871H157.971V132.381H156.376V124.871Z" fill="black"/>
<path d="M159.993 121.577H161.587V132.381H159.993V121.577Z" fill="black"/>
<path d="M163.275 131.381C163.275 130.799 163.747 130.328 164.342 130.328C164.937 130.328 165.395 130.799 165.395 131.381C165.395 131.963 164.923 132.474 164.342 132.474C163.76 132.474 163.275 131.989 163.275 131.381Z" fill="black"/>
</svg>
