<svg width="217" height="136" viewBox="0 0 217 136" fill="none" xmlns="http://www.w3.org/2000/svg">
<path d="M69.706 134.182C68.885 126.893 62.6991 121.227 55.1927 121.227C47.6862 121.227 41.5194 126.874 40.6825 134.147C40.5775 135.044 41.2712 135.837 42.1749 135.837H68.2105C69.1014 135.837 69.8078 135.067 69.706 134.179V134.182Z" fill="#3F3F3F"/>
<path d="M61.5504 103.272H48.7204C48.2459 103.272 47.8612 103.656 47.8612 104.131V116.965C47.8612 117.439 48.2459 117.824 48.7204 117.824H61.5504C62.0249 117.824 62.4095 117.439 62.4095 116.965V104.131C62.4095 103.656 62.0249 103.272 61.5504 103.272Z" fill="#3F3F3F"/>
<path d="M171.847 134.182C171.026 126.893 164.84 121.227 157.333 121.227C149.827 121.227 143.66 126.873 142.823 134.147C142.718 135.044 143.412 135.837 144.316 135.837H170.351C171.242 135.837 171.948 135.066 171.847 134.178V134.182Z" fill="#3F3F3F"/>
<path d="M152.522 117.172C152.767 117.598 153.222 117.859 153.715 117.859H161.075C161.569 117.859 162.02 117.598 162.269 117.172L165.95 110.796C166.195 110.37 166.195 109.844 165.95 109.421L162.269 103.046C162.024 102.619 161.569 102.358 161.075 102.358H153.715C153.222 102.358 152.77 102.619 152.522 103.046L148.84 109.421C148.595 109.848 148.595 110.373 148.84 110.796L152.522 117.172Z" fill="#3F3F3F"/>
<path d="M106.265 118.961C110.693 118.961 114.283 115.369 114.283 110.939C114.283 106.509 110.693 102.918 106.265 102.918C101.836 102.918 98.2458 106.509 98.2458 110.939C98.2458 115.369 101.836 118.961 106.265 118.961Z" fill="#FFCE00"/>
<path d="M120.778 134.182C119.957 126.893 113.771 121.227 106.265 121.227C98.7581 121.227 92.5913 126.873 91.7544 134.147C91.6494 135.044 92.3431 135.837 93.2468 135.837H119.282C120.173 135.837 120.88 135.066 120.778 134.178V134.182Z" fill="#FFCE00"/>
<path d="M176.661 0.36853H40.3389C18.0603 0.36853 0 18.4342 0 40.7193C0 63.0045 18.0603 81.0702 40.3389 81.0702H176.661C198.94 81.0702 217 63.0045 217 40.7193C217 18.4342 198.94 0.36853 176.661 0.36853Z" fill="#FFCE00"/>
<path d="M107.569 92.4526L113.628 77.0787H98.9014L104.96 92.4526C105.428 93.6367 107.102 93.6367 107.569 92.4526Z" fill="#FFCE00"/>
<path d="M28.0306 31.0973C28.0306 27.3604 30.8086 24.709 34.2134 24.709C37.6182 24.709 40.3802 27.4241 40.3802 31.0973C40.3802 34.7704 37.65 37.4696 34.1975 37.4696C30.7449 37.4696 28.0306 34.8468 28.0306 31.0973ZM34.2293 35.6012C36.4885 35.6012 38.2928 33.7009 38.2928 31.0973C38.2928 28.4936 36.5204 26.5774 34.2293 26.5774C31.9382 26.5774 30.1181 28.4777 30.1181 31.0973C30.1181 33.7169 31.97 35.6012 34.2293 35.6012Z" fill="black"/>
<path d="M41.828 24.6453H43.68V37.2022H41.828V24.6453Z" fill="black"/>
<path d="M45.7196 24.6453H47.5716V29.8717H47.6034C48.2621 28.7259 49.2835 28.2229 50.3972 28.2229C51.9819 28.2229 53.4902 29.2447 53.4902 31.7083V37.2022H51.6223V32.5232C51.6223 31.0781 51.0877 29.98 49.7544 29.98C48.4975 29.98 47.5716 30.9699 47.5716 32.5868V37.2022H45.7196V24.6453Z" fill="black"/>
<path d="M54.8203 35.006C54.8203 33.3572 56.1695 32.6983 57.7383 32.3673C59.5902 31.9758 60.3762 31.9121 60.3762 31.0973C60.3762 30.3588 59.7493 29.7477 58.7438 29.7477C57.8655 29.7477 57.1432 30.2506 56.8441 31.2691L55.1035 30.6739C55.6381 28.901 57.2069 28.2262 58.8392 28.2262C60.8153 28.2262 62.2759 29.2161 62.2759 31.2723V34.4744C62.2759 35.9195 62.3872 36.5147 62.5591 37.2054H60.6912C60.5671 36.7662 60.5194 36.3587 60.5194 35.8558H60.4875C60.0007 36.8298 58.9824 37.4728 57.7096 37.4728C56.2204 37.4728 54.8235 36.6739 54.8235 35.0092L54.8203 35.006ZM58.2092 36.0277C59.5584 36.0277 60.3921 34.8341 60.3921 33.8633V33.0166C59.937 33.2521 59.2625 33.4399 58.5879 33.5832C57.8051 33.7551 56.8632 34.102 56.8632 34.9487C56.8632 35.6394 57.4137 36.0309 58.2124 36.0309L58.2092 36.0277Z" fill="black"/>
<path d="M66.9822 35.0219L68.7069 34.4553C69.1142 35.4771 69.9638 35.9322 70.7147 35.9322C71.297 35.9322 72.0957 35.6808 72.0957 34.8818C72.0957 34.1434 71.3734 33.9238 70.6988 33.72L69.7888 33.4527C68.7832 33.1535 67.3863 32.5264 67.3863 30.8776C67.3863 29.2288 68.831 28.2262 70.5556 28.2262C72.2803 28.2262 73.4418 29.1684 73.8204 30.4097L72.0926 30.9763C71.8571 30.3333 71.3543 29.7508 70.4761 29.7508C69.7697 29.7508 69.251 30.1424 69.251 30.7408C69.251 31.527 70.1929 31.823 70.9311 32.0267L71.6534 32.2304C72.5158 32.4819 74.0718 32.937 74.0718 34.694C74.0718 36.3428 72.7544 37.4728 70.7306 37.4728C68.815 37.4728 67.4181 36.4829 66.979 35.0251L66.9822 35.0219Z" fill="black"/>
<path d="M74.8768 32.8542C74.8768 30.1391 76.7129 28.223 79.3508 28.223C81.9887 28.223 83.8089 30.1391 83.8089 32.8542C83.8089 35.5693 81.9887 37.4696 79.3508 37.4696C76.7129 37.4696 74.8768 35.5693 74.8768 32.8542ZM79.3508 35.7094C80.84 35.7094 81.8773 34.5157 81.8773 32.8542C81.8773 31.1927 80.84 29.98 79.3508 29.98C77.8616 29.98 76.8242 31.1736 76.8242 32.8542C76.8242 34.5348 77.8616 35.7094 79.3508 35.7094ZM80.1813 24.4702H82.4247L80.0381 27.4049H78.4216L80.1781 24.4702H80.1813Z" fill="black"/>
<path d="M85.4857 37.1894C84.9829 36.9857 84.7157 36.5465 84.7157 36.0436C84.7157 35.3688 85.2661 34.8181 85.9566 34.8181C86.6472 34.8181 87.1817 35.3688 87.1817 36.0276C87.1817 36.6388 86.8063 37.1417 85.4093 39.3093H84.3593L85.4889 37.1894H85.4857Z" fill="black"/>
<path d="M91.309 32.8543C91.309 30.0278 93.2086 28.223 95.7511 28.223C97.5235 28.223 99.0923 29.1334 99.7382 30.8745L97.9817 31.5811C97.6062 30.4989 96.7407 29.98 95.7384 29.98C94.2333 29.98 93.2595 31.2214 93.2595 32.8384C93.2595 34.5954 94.3733 35.7094 95.8179 35.7094C96.9475 35.7094 97.8258 35.0346 98.2649 33.9365L99.9896 34.6113C99.3627 36.4161 97.7781 37.4664 95.7988 37.4664C93.2246 37.4664 91.309 35.6776 91.309 32.8511V32.8543Z" fill="black"/>
<path d="M100.553 32.8702C100.553 30.1869 102.357 28.223 104.899 28.223C106.923 28.223 109.042 29.493 109.042 32.7906V33.3412H102.437C102.577 34.8945 103.662 35.8049 105.027 35.8049C106.109 35.8049 106.958 35.1619 107.366 34.1561L109.106 34.8468C108.511 36.3842 107.003 37.4696 105.027 37.4696C102.468 37.4696 100.553 35.6489 100.553 32.8702ZM103.881 24.5975H105.857L108.132 27.4081H106.376C105.889 26.8734 105.354 26.2941 104.871 25.7434C104.368 26.31 103.865 26.8575 103.366 27.4081H101.609L103.884 24.5975H103.881ZM107.162 32.0076C107.038 30.4224 105.969 29.8272 104.887 29.8272C103.601 29.8272 102.752 30.7216 102.532 32.0076H107.162Z" fill="black"/>
<path d="M114.643 30.1551H113.341V28.4745H114.643V27.5164C114.643 25.3965 115.725 24.3779 117.437 24.3779C117.876 24.3779 118.458 24.4575 118.929 24.6771V26.2623C118.474 26.0426 118.159 25.979 117.815 25.979C116.514 25.979 116.514 26.8893 116.514 27.7073V28.4776H118.681V30.1583H116.514V37.2054H114.646V30.1583L114.643 30.1551Z" fill="black"/>
<path d="M118.881 32.8543C118.881 30.1392 120.717 28.223 123.355 28.223C125.993 28.223 127.813 30.1392 127.813 32.8543C127.813 35.5694 125.993 37.4696 123.355 37.4696C120.717 37.4696 118.881 35.5694 118.881 32.8543ZM123.355 35.7094C124.845 35.7094 125.882 34.5158 125.882 32.8543C125.882 31.1928 124.845 29.98 123.355 29.98C121.866 29.98 120.829 31.1737 120.829 32.8543C120.829 34.5349 121.866 35.7094 123.355 35.7094Z" fill="black"/>
<path d="M130.213 24.4575C130.887 24.4575 131.406 25.0082 131.406 25.6511C131.406 26.3419 130.887 26.8925 130.213 26.8925C129.538 26.8925 128.988 26.3419 128.988 25.6511C128.988 25.0082 129.506 24.4575 130.213 24.4575ZM129.271 28.4745H131.123V37.2022H129.271V28.4745Z" fill="black"/>
<path d="M136.71 28.4745H138.531V29.8718H138.562C139.189 28.7578 140.274 28.223 141.34 28.223C142.406 28.223 143.552 28.7578 144.007 29.98H144.039C144.885 28.6623 145.97 28.223 146.973 28.223C148.509 28.223 150.066 29.3052 150.066 31.7084V37.2023H148.198V32.5233C148.198 31.0463 147.663 29.98 146.441 29.98C145.219 29.98 144.322 30.954 144.322 32.5869V37.2023H142.454V32.5233C142.454 31.0336 141.919 29.98 140.682 29.98C139.444 29.98 138.562 30.954 138.562 32.5869V37.2023H136.71V28.4745Z" fill="black"/>
<path d="M151.399 32.8702C151.399 30.1869 153.203 28.223 155.745 28.223C157.769 28.223 159.889 29.493 159.889 32.7906V33.3413H153.283C153.423 34.8946 154.508 35.8049 155.873 35.8049C156.955 35.8049 157.804 35.162 158.212 34.1561L159.952 34.8468C159.357 36.3842 157.849 37.4696 155.873 37.4696C153.314 37.4696 151.402 35.649 151.402 32.8702H151.399ZM158.005 32.0076C157.881 30.4225 156.811 29.8273 155.73 29.8273C154.444 29.8273 153.594 30.7217 153.375 32.0076H158.005Z" fill="black"/>
<path d="M161.394 24.6453H163.246V37.2022H161.394V24.6453Z" fill="black"/>
<path d="M165.285 24.6453H167.137V29.8717H167.169C167.828 28.7259 168.849 28.2229 169.963 28.2229C171.548 28.2229 173.056 29.2447 173.056 31.7083V37.2022H171.188V32.5232C171.188 31.0781 170.653 29.98 169.32 29.98C168.063 29.98 167.137 30.9699 167.137 32.5868V37.2022H165.285V24.6453Z" fill="black"/>
<path d="M174.389 32.8543C174.389 30.1392 176.225 28.223 178.863 28.223C181.501 28.223 183.321 30.1392 183.321 32.8543C183.321 35.5694 181.501 37.4696 178.863 37.4696C176.225 37.4696 174.389 35.5694 174.389 32.8543ZM178.863 35.7094C180.352 35.7094 181.39 34.5158 181.39 32.8543C181.39 31.1928 180.352 29.98 178.863 29.98C177.374 29.98 176.336 31.1737 176.336 32.8543C176.336 34.5349 177.374 35.7094 178.863 35.7094Z" fill="black"/>
<path d="M184.778 28.4745H186.599V29.9514H186.662C187.101 28.9933 188.027 28.2262 189.236 28.2262C189.52 28.2262 189.803 28.258 190.115 28.3822V30.4543C189.784 30.3302 189.329 30.2824 189.049 30.2824C187.073 30.2824 186.63 32.1508 186.63 33.58V37.2054H184.778V28.4776V28.4745Z" fill="black"/>
<path d="M32.9819 51.6785C32.9819 48.8202 34.7543 47.0632 36.9531 47.0632C38.2546 47.0632 39.2283 47.7061 39.7788 48.6324H39.8106V43.4823H41.6785V53.3082C41.6785 54.7692 41.7867 55.3485 41.9617 56.0392H40.1097C39.9856 55.5204 39.922 55.1289 39.9379 54.7374H39.9061C39.2474 55.8196 38.1178 56.3066 36.9722 56.3066C34.5539 56.3066 32.9851 54.3586 32.9851 51.6753L32.9819 51.6785ZM37.3604 54.5368C38.7892 54.5368 39.8552 53.3432 39.8552 51.6626C39.8552 49.982 38.7574 48.8202 37.3604 48.8202C35.9635 48.8202 34.9134 50.0138 34.9134 51.6785C34.9134 53.3432 35.919 54.5368 37.3604 54.5368Z" fill="black"/>
<path d="M43.1359 51.6944C43.1359 48.9793 44.9719 47.0631 47.6066 47.0631C50.2414 47.0631 52.0647 48.9793 52.0647 51.6944C52.0647 54.4095 50.2446 56.3097 47.6066 56.3097C44.9687 56.3097 43.1359 54.4095 43.1359 51.6944ZM47.6066 54.5495C49.099 54.5495 50.1332 53.3559 50.1332 51.6944C50.1332 50.0328 49.099 48.8201 47.6066 48.8201C46.1143 48.8201 45.0801 50.0137 45.0801 51.6944C45.0801 53.375 46.1143 54.5495 47.6066 54.5495Z" fill="black"/>
<path d="M63.3356 54.6291C62.6291 55.7431 61.5791 56.3097 60.3699 56.3097C58.0629 56.3097 56.4941 54.2694 56.4941 51.6466C56.4941 48.836 58.2825 47.0631 60.4653 47.0631C61.7827 47.0631 62.7882 47.7061 63.3356 48.6642H63.3674V47.3146H65.1875V59.4959H63.3356V54.6291ZM60.8886 54.5336C62.3014 54.5336 63.3674 53.34 63.3674 51.6594C63.3674 49.9787 62.2855 48.8169 60.8726 48.8169C59.4598 48.8169 58.4256 50.0106 58.4256 51.6753C58.4256 53.34 59.4471 54.5336 60.8886 54.5336Z" fill="black"/>
<path d="M67.1157 52.7925V47.3146H68.9836V52.1336C68.9836 53.7347 69.7059 54.5495 70.7878 54.5495C72.1052 54.5495 72.8593 53.3718 72.8593 52.07V47.3146H74.7272V53.3113C74.7272 54.7723 74.8354 55.3516 75.0104 56.0424H73.1584C73.0343 55.5235 72.9707 55.132 72.9707 54.8169H72.9389C72.4043 55.7591 71.542 56.3065 70.2564 56.3065C68.4522 56.3065 67.1189 55.2243 67.1189 52.7893L67.1157 52.7925Z" fill="black"/>
<path d="M76.1877 51.7103C76.1877 49.027 77.992 47.0631 80.5344 47.0631C82.5582 47.0631 84.6775 48.3331 84.6775 51.6307V52.1814H78.0715C78.2115 53.7347 79.2966 54.645 80.6617 54.645C81.7436 54.645 82.5932 54.002 83.0005 52.9962L84.7411 53.6869C84.1461 55.2243 82.6378 56.3097 80.6617 56.3097C78.1033 56.3097 76.1877 54.489 76.1877 51.7103ZM82.7937 50.8477C82.6696 49.2626 81.6004 48.6673 80.5185 48.6673C79.233 48.6673 78.3834 49.5618 78.1638 50.8477H82.7937Z" fill="black"/>
<path d="M89.1356 51.7103C89.1356 49.027 90.9398 47.0631 93.4823 47.0631C95.5061 47.0631 97.6253 48.3331 97.6253 51.6307V52.1814H91.0194C91.1594 53.7347 92.2445 54.645 93.6096 54.645C94.6915 54.645 95.5411 54.002 95.9484 52.9962L97.689 53.6869C97.0939 55.2243 95.5856 56.3097 93.6096 56.3097C91.0512 56.3097 89.1388 54.489 89.1388 51.7103H89.1356ZM95.7416 50.8477C95.6175 49.2626 94.5483 48.6673 93.4664 48.6673C92.1808 48.6673 91.3312 49.5618 91.1117 50.8477H95.7416Z" fill="black"/>
<path d="M99.0222 52.7925V47.3146H100.89V52.1336C100.89 53.7347 101.612 54.5495 102.694 54.5495C104.012 54.5495 104.766 53.3718 104.766 52.07V47.3146H106.634V53.3113C106.634 54.7723 106.745 55.3516 106.917 56.0424H105.065C104.941 55.5235 104.877 55.132 104.877 54.8169H104.845C104.311 55.7591 103.448 56.3065 102.163 56.3065C100.359 56.3065 99.0254 55.2243 99.0254 52.7893L99.0222 52.7925Z" fill="black"/>
<path d="M112.234 47.3146H114.054V48.7756H114.086C114.856 47.5819 115.874 47.0631 117.068 47.0631C119.422 47.0631 120.927 49.0875 120.927 51.6466C120.927 54.5336 119.076 56.3097 116.94 56.3097C115.575 56.3097 114.617 55.5872 114.083 54.7246V59.4959H112.231V47.3146H112.234ZM116.549 54.5495C117.978 54.5495 118.996 53.34 118.996 51.6944C118.996 50.0488 117.962 48.8201 116.549 48.8201C115.136 48.8201 114.054 49.9978 114.054 51.6944C114.054 53.3909 115.136 54.5495 116.549 54.5495Z" fill="black"/>
<path d="M121.793 51.7103C121.793 49.027 123.597 47.0631 126.14 47.0631C128.163 47.0631 130.283 48.3331 130.283 51.6307V52.1814H123.677C123.817 53.7347 124.902 54.645 126.267 54.645C127.349 54.645 128.198 54.002 128.606 52.9962L130.346 53.6869C129.751 55.2243 128.243 56.3097 126.267 56.3097C123.709 56.3097 121.796 54.489 121.796 51.7103H121.793ZM128.399 50.8477C128.275 49.2626 127.206 48.6673 126.124 48.6673C124.838 48.6673 123.989 49.5618 123.769 50.8477H128.399Z" fill="black"/>
<path d="M131.791 47.3146H133.611V48.7119H133.643C134.302 47.566 135.355 47.0631 136.469 47.0631C138.053 47.0631 139.562 48.0849 139.562 50.5485V56.0423H137.694V51.3633C137.694 49.9183 137.159 48.8201 135.826 48.8201C134.569 48.8201 133.643 49.7941 133.643 51.427V56.0423H131.791V47.3146Z" fill="black"/>
<path d="M140.704 53.8588L142.432 53.2922C142.839 54.314 143.689 54.7691 144.44 54.7691C145.019 54.7691 145.821 54.5177 145.821 53.7188C145.821 52.9803 145.098 52.7607 144.424 52.557L143.514 52.2896C142.508 51.9904 141.114 51.3633 141.114 49.7145C141.114 48.0658 142.559 47.0631 144.284 47.0631C146.008 47.0631 147.17 48.0053 147.548 49.2466L145.824 49.8132C145.588 49.1703 145.086 48.5878 144.207 48.5878C143.501 48.5878 142.982 48.9793 142.982 49.5777C142.982 50.3639 143.924 50.6599 144.662 50.8636L145.385 51.0673C146.247 51.3188 147.8 51.7739 147.8 53.531C147.8 55.1797 146.482 56.3097 144.459 56.3097C142.543 56.3097 141.146 55.3198 140.707 53.862L140.704 53.8588Z" fill="black"/>
<path d="M148.595 53.8429C148.595 52.1941 149.945 51.5352 151.513 51.2042C153.365 50.8127 154.151 50.749 154.151 49.9342C154.151 49.1957 153.524 48.5846 152.519 48.5846C151.641 48.5846 150.918 49.0875 150.619 50.1061L148.879 49.5108C149.413 47.7379 150.982 47.0631 152.614 47.0631C154.59 47.0631 156.051 48.053 156.051 50.1092V53.3113C156.051 54.7564 156.162 55.3516 156.334 56.0423H154.466C154.342 55.6031 154.294 55.1957 154.294 54.6928H154.263C153.776 55.6668 152.757 56.3097 151.485 56.3097C149.995 56.3097 148.599 55.5108 148.599 53.8461L148.595 53.8429ZM151.984 54.8646C153.333 54.8646 154.167 53.671 154.167 52.7002V51.8535C153.712 52.0891 153.037 52.2769 152.363 52.4201C151.58 52.592 150.638 52.9389 150.638 53.7856C150.638 54.4763 151.189 54.8678 151.987 54.8678L151.984 54.8646Z" fill="black"/>
<path d="M156.805 47.3146H158.829C159.628 49.4663 160.334 51.5543 161.136 53.8461H161.168C161.95 51.5543 162.657 49.4663 163.443 47.3146H165.419L162.234 56.0424H160.006L156.805 47.3146Z" fill="black"/>
<path d="M165.686 53.8429C165.686 52.1941 167.035 51.5352 168.604 51.2042C170.456 50.8127 171.242 50.749 171.242 49.9342C171.242 49.1957 170.615 48.5846 169.61 48.5846C168.731 48.5846 168.009 49.0875 167.71 50.1061L165.969 49.5108C166.504 47.7379 168.073 47.0631 169.705 47.0631C171.681 47.0631 173.142 48.053 173.142 50.1092V53.3113C173.142 54.7564 173.253 55.3516 173.425 56.0423H171.557C171.433 55.6031 171.385 55.1957 171.385 54.6928H171.353C170.867 55.6668 169.848 56.3097 168.575 56.3097C167.086 56.3097 165.689 55.5108 165.689 53.8461L165.686 53.8429ZM169.075 54.8646C170.424 54.8646 171.258 53.671 171.258 52.7002V51.8535C170.803 52.0891 170.128 52.2769 169.454 52.4201C168.671 52.592 167.729 52.9389 167.729 53.7856C167.729 54.4763 168.28 54.8678 169.078 54.8678L169.075 54.8646Z" fill="black"/>
<path d="M174.695 54.8806C174.695 54.2058 175.245 53.6552 175.936 53.6552C176.626 53.6552 177.161 54.2058 177.161 54.8806C177.161 55.5554 176.61 56.1538 175.936 56.1538C175.261 56.1538 174.695 55.5872 174.695 54.8806Z" fill="black"/>
<path d="M178.398 54.8806C178.398 54.2058 178.949 53.6552 179.639 53.6552C180.33 53.6552 180.865 54.2058 180.865 54.8806C180.865 55.5554 180.314 56.1538 179.639 56.1538C178.965 56.1538 178.398 55.5872 178.398 54.8806Z" fill="black"/>
<path d="M182.102 54.8806C182.102 54.2058 182.653 53.6552 183.343 53.6552C184.034 53.6552 184.569 54.2058 184.569 54.8806C184.569 55.5554 184.018 56.1538 183.343 56.1538C182.669 56.1538 182.102 55.5872 182.102 54.8806Z" fill="black"/>
</svg>
