<svg width="252" height="96" viewBox="0 0 252 96" fill="none" xmlns="http://www.w3.org/2000/svg">
<path d="M250.368 34.7653L232.027 4.42749C230.46 1.83274 227.649 0.247803 224.617 0.247803H51.0795C48.0477 0.247803 45.2366 1.83274 43.6689 4.42749L25.3281 34.7653C25.2045 34.966 25.0942 35.1733 24.9905 35.3839L16.3065 49.645C15.7516 50.5579 16.4034 51.7282 17.4731 51.7315L30.2016 51.7884L43.6689 74.0678C45.2366 76.6625 48.0477 78.2475 51.0795 78.2475H224.617C227.649 78.2475 230.46 76.6625 232.027 74.0678L250.368 43.7299C252.033 40.9747 252.033 37.5206 250.368 34.7653Z" fill="#F24AFF"/>
<path d="M57.9652 44.2717L62.8421 42.6232C63.895 46.4852 66.3852 47.6422 68.7384 47.6422C71.0916 47.6422 73.301 46.4852 73.301 44.2717C73.301 42.0581 70.9846 41.2188 68.6682 40.4799L66.2114 39.7409C63.5106 38.9351 58.9112 37.1094 58.9112 31.9132C58.9112 26.717 63.0861 23.838 68.3506 23.838C73.6152 23.838 76.9846 26.8909 77.8603 30.2279L73.0871 32.1573C72.2448 29.947 70.6671 28.5761 68.2437 28.5761C65.8203 28.5761 64.383 29.8033 64.383 31.4885C64.383 33.6987 66.9434 34.6484 69.1194 35.3506L71.9974 36.2634C74.4876 37.0692 78.8397 38.4402 78.8397 43.633C78.8397 48.8259 74.9456 52.3736 68.8019 52.3736C63.4671 52.3736 59.2588 49.4946 57.9585 44.265L57.9652 44.2717Z" fill="black"/>
<path d="M80.4943 42.0246C80.4943 35.9524 84.6358 31.6356 90.599 31.6356C96.5621 31.6356 100.704 35.9524 100.704 42.0246C100.704 48.0969 96.5621 52.3802 90.599 52.3802C84.6358 52.3802 80.4943 48.1337 80.4943 42.0246ZM90.599 47.6756C93.5471 47.6756 95.5828 45.3249 95.5828 42.0246C95.5828 38.7244 93.5471 36.3369 90.599 36.3369C87.6508 36.3369 85.5817 38.6876 85.5817 42.0246C85.5817 45.3617 87.6508 47.6756 90.599 47.6756Z" fill="black"/>
<path d="M105.059 45.5356V36.6546H101.198V32.1974H105.059V26.6501H109.973V32.1974H115.271V36.6546H109.973V43.7802C109.973 45.6393 109.973 47.9231 112.64 47.9231C113.586 47.9231 114.498 47.6422 115.271 47.2209V51.6447C114.288 52.173 112.991 52.3837 111.621 52.3837C105.059 52.3837 105.059 47.5753 105.059 45.539V45.5356Z" fill="black"/>
<path d="M116.745 46.6591C116.745 43.0077 119.656 41.5331 123.062 40.7975C127.484 39.8512 128.888 39.7108 128.888 38.166C128.888 36.7282 127.662 35.6381 125.766 35.6381C124.048 35.6381 122.574 36.5509 121.942 38.7612L117.346 37.2163C118.573 33.1102 122.153 31.6356 125.944 31.6356C130.787 31.6356 133.839 34.0231 133.839 38.5873V45.6794C133.839 48.8727 134.086 50.2436 134.47 51.7884H129.594C129.313 50.9458 129.206 50.1399 129.206 49.2271H129.136C128.12 51.1564 125.873 52.3869 123.31 52.3869C119.977 52.3869 116.748 50.5278 116.748 46.6658L116.745 46.6591ZM124.747 48.5884C127.344 48.5884 128.922 46.4116 128.922 44.4121V42.8338C127.906 43.2552 126.184 43.7099 125.098 43.9206C123.554 44.3084 122.116 45.0441 122.116 46.5186C122.116 47.9932 123.239 48.5884 124.747 48.5884Z" fill="black"/>
<path d="M156.398 51.22C154.68 51.9589 152.748 52.3769 150.679 52.3769C142.817 52.3769 136.573 46.5488 136.573 38.1259C136.573 29.703 142.784 23.838 150.715 23.838C158.647 23.838 164.821 29.8066 164.821 38.1259C164.821 42.339 163.207 45.9904 160.576 48.5517C161.733 49.8858 162.893 51.22 164.049 52.5876L160.295 55.7106L156.401 51.2166L156.398 51.22ZM150.749 47.465C151.451 47.465 152.153 47.2877 152.785 47.0069C151.768 45.7797 150.715 44.586 149.696 43.3555L153.45 40.2324C154.676 41.707 155.94 43.1816 157.17 44.6194C158.607 42.9709 159.45 40.724 159.45 38.1259C159.45 32.8595 156.08 28.7533 150.746 28.7533C145.411 28.7533 141.901 32.6856 141.901 38.1259C141.901 43.5661 145.514 47.4616 150.746 47.4616L150.749 47.465Z" fill="black"/>
<path d="M167.696 44.4823V32.1974H172.609V42.7971C172.609 45.7797 173.803 47.6756 176.153 47.6756C178.713 47.6756 180.257 45.4988 180.257 42.7269V32.1974H185.171V45.6761C185.171 48.9061 185.415 50.2403 185.803 51.7851H180.889C180.645 50.6984 180.505 49.9594 180.538 49.3976H180.468C179.382 51.1866 177.627 52.3803 174.749 52.3803C170.433 52.3803 167.696 49.7487 167.696 44.4823Z" fill="black"/>
<path d="M191.839 23.1392C193.557 23.1392 194.858 24.5068 194.858 26.1218C194.858 27.8773 193.561 29.2449 191.839 29.2449C190.118 29.2449 188.788 27.8773 188.788 26.1218C188.788 24.5068 190.085 23.1392 191.839 23.1392ZM189.349 32.1974H194.263V51.7851H189.349V32.1974Z" fill="black"/>
<path d="M206.47 36.7248H197.418V32.1974H212.998V36.3737C209.876 39.9883 206.787 43.6397 203.665 47.2911H213.7V51.7851H197.208V47.6422L206.47 36.7248Z" fill="black"/>
<path d="M31.2445 94.0467C30.3822 86.3895 23.8842 80.4376 15.999 80.4376C8.1138 80.4376 1.63586 86.3694 0.756756 94.0099C0.646451 94.9528 1.37514 95.7854 2.32443 95.7854H29.6735C30.6095 95.7854 31.3515 94.9762 31.2445 94.0433V94.0467Z" fill="#F24AFF"/>
<path d="M10.945 76.1776C11.2024 76.6257 11.6803 76.8999 12.1984 76.8999H19.9299C20.448 76.8999 20.9226 76.6257 21.1833 76.1776L25.0507 69.4801C25.3081 69.0321 25.3081 68.4803 25.0507 68.0356L21.1833 61.3381C20.926 60.89 20.448 60.6158 19.9299 60.6158H12.1984C11.6803 60.6158 11.2057 60.89 10.945 61.3381L7.07759 68.0356C6.82021 68.4837 6.82021 69.0354 7.07759 69.4801L10.945 76.1776Z" fill="#F24AFF"/>
</svg>
