<svg xmlns="http://www.w3.org/2000/svg" width="157" height="33" viewBox="0 0 157 33" fill="none">
<path d="M0.965188 21.2716L5.84203 19.6231C6.89495 23.4851 9.38517 24.6421 11.7384 24.6421C14.0915 24.6421 16.301 23.4851 16.301 21.2716C16.301 19.058 13.9846 18.2187 11.6682 17.4797L9.21136 16.7408C6.51054 15.9349 1.91114 14.1092 1.91114 8.91306C1.91114 3.71687 6.08603 0.837891 11.3506 0.837891C16.6152 0.837891 19.9845 3.89074 20.8603 7.2278L16.0871 9.15714C15.2447 6.94692 13.667 5.57599 11.2437 5.57599C8.82028 5.57599 7.38296 6.80314 7.38296 8.48839C7.38296 10.6986 9.94339 11.6482 12.1194 12.3504L14.9974 13.2633C17.4876 14.0691 21.8397 15.44 21.8397 20.6329C21.8397 25.8257 17.9456 29.3735 11.8019 29.3735C6.46709 29.3735 2.25876 26.4945 0.958496 21.2649L0.965188 21.2716Z" fill="black"/>
<path d="M23.4941 19.0248C23.4941 12.9525 27.6356 8.63574 33.5988 8.63574C39.562 8.63574 43.7035 12.9525 43.7035 19.0248C43.7035 25.097 39.562 29.3804 33.5988 29.3804C27.6356 29.3804 23.4941 25.1338 23.4941 19.0248ZM33.5988 24.6757C36.547 24.6757 38.5826 22.325 38.5826 19.0248C38.5826 15.7245 36.547 13.3371 33.5988 13.3371C30.6506 13.3371 28.5816 15.6877 28.5816 19.0248C28.5816 22.3618 30.6506 24.6757 33.5988 24.6757Z" fill="black"/>
<path d="M48.0589 22.5356V13.6546H44.1982V9.19743H48.0589V3.65015H52.9725V9.19743H58.2706V13.6546H52.9725V20.7802C52.9725 22.6393 52.9725 24.9231 55.6399 24.9231C56.5859 24.9231 57.4984 24.6422 58.2706 24.2209V28.6447C57.2878 29.173 55.9909 29.3837 54.6204 29.3837C48.0589 29.3837 48.0589 24.5753 48.0589 22.539V22.5356Z" fill="black"/>
<path d="M59.7446 23.6592C59.7446 20.0078 62.656 18.5332 66.0621 17.7976C70.4844 16.8513 71.8883 16.7109 71.8883 15.1661C71.8883 13.7283 70.6615 12.6382 68.7663 12.6382C67.0482 12.6382 65.5741 13.5511 64.9424 15.7613L60.3463 14.2165C61.573 10.1103 65.1529 8.63574 68.9434 8.63574C73.7869 8.63574 76.8387 11.0232 76.8387 15.5874V22.6795C76.8387 25.8728 77.086 27.2437 77.4704 28.7885H72.5936C72.3128 27.9459 72.2058 27.1401 72.2058 26.2272H72.1356C71.1195 28.1566 68.8732 29.3871 66.3095 29.3871C62.9769 29.3871 59.748 27.5279 59.748 23.6659L59.7446 23.6592ZM67.7468 25.5885C70.344 25.5885 71.9217 23.4118 71.9217 21.4122V19.834C70.9055 20.2553 69.1841 20.71 68.0978 20.9207C66.5535 21.3086 65.1162 22.0442 65.1162 23.5188C65.1162 24.9934 66.2393 25.5885 67.7468 25.5885Z" fill="black"/>
<path d="M99.3979 28.2199C97.6798 28.9588 95.7478 29.3768 93.6787 29.3768C85.8169 29.3768 79.573 23.5486 79.573 15.1257C79.573 6.70283 85.7835 0.837891 93.7155 0.837891C101.647 0.837891 107.821 6.80649 107.821 15.1257C107.821 19.3389 106.207 22.9902 103.576 25.5515C104.733 26.8857 105.893 28.2199 107.049 29.5875L103.295 32.7105L99.4013 28.2165L99.3979 28.2199ZM93.7489 24.4648C94.4509 24.4648 95.1528 24.2876 95.7846 24.0067C94.7684 22.7796 93.7155 21.5859 92.696 20.3554L96.4497 17.2323C97.6765 18.7069 98.94 20.1815 100.17 21.6193C101.607 19.9708 102.45 17.7238 102.45 15.1257C102.45 9.85933 99.0804 5.75321 93.7456 5.75321C88.4108 5.75321 84.9011 9.68546 84.9011 15.1257C84.9011 20.566 88.5144 24.4615 93.7456 24.4615L93.7489 24.4648Z" fill="black"/>
<path d="M110.696 21.4822V9.19727H115.609V19.7969C115.609 22.7796 116.803 24.6755 119.153 24.6755C121.713 24.6755 123.257 22.4987 123.257 19.7267V9.19727H128.171V22.6759C128.171 25.906 128.415 27.2401 128.803 28.7849H123.889C123.645 27.6982 123.505 26.9593 123.538 26.3975H123.468C122.382 28.1864 120.627 29.3801 117.749 29.3801C113.433 29.3801 110.696 26.7486 110.696 21.4822Z" fill="black"/>
<path d="M134.839 0.13916C136.557 0.13916 137.858 1.50676 137.858 3.12179C137.858 4.87726 136.561 6.24485 134.839 6.24485C133.118 6.24485 131.788 4.87726 131.788 3.12179C131.788 1.50676 133.085 0.13916 134.839 0.13916ZM132.349 9.19738H137.263V28.7851H132.349V9.19738Z" fill="black"/>
<path d="M149.47 13.7247H140.418V9.19727H155.998V13.3736C152.876 16.9882 149.787 20.6396 146.665 24.2909H156.7V28.7849H140.208V24.6421L149.47 13.7247Z" fill="black"/>
</svg>