<svg xmlns="http://www.w3.org/2000/svg" width="24" height="26" viewBox="0 0 24 26" fill="none">
    <path d="M20.3833 18.2961C19.2367 18.2961 18.2167 18.8291 17.5533 19.662L7.03001 14.2316C7.16001 13.8585 7.23334 13.4586 7.23334 13.0389C7.23334 12.6191 7.16001 12.2193 7.03001 11.8462L17.5533 6.41569C18.2167 7.24858 19.2367 7.78163 20.3833 7.78163C22.38 7.78163 24 6.16249 24 4.16687C24 2.17126 22.38 0.552124 20.3833 0.552124C18.3867 0.552124 16.7667 2.17126 16.7667 4.16687C16.7667 4.54667 16.8267 4.91315 16.9333 5.25631L6.37667 10.7034C5.71334 9.9205 4.72333 9.42411 3.61666 9.42411C1.61999 9.42411 0 11.0432 0 13.0389C0 15.0345 1.61999 16.6536 3.61666 16.6536C4.72333 16.6536 5.71334 16.1572 6.37667 15.3743L16.9333 20.8214C16.8233 21.1646 16.7667 21.531 16.7667 21.9108C16.7667 23.9065 18.3867 25.5256 20.3833 25.5256C22.38 25.5256 24 23.9065 24 21.9108C24 19.9152 22.38 18.2961 20.3833 18.2961Z" fill="#C4C4C4"/>
</svg>