<svg xmlns="http://www.w3.org/2000/svg" width="100%" height="79" viewBox="0 0 236 79" fill="none">
<path d="M234.368 34.7653L216.027 4.42749C214.46 1.83274 211.649 0.247803 208.617 0.247803H35.0795C32.0477 0.247803 29.2366 1.83274 27.6689 4.42749L9.32813 34.7653C9.20445 34.966 9.09415 35.1733 8.99053 35.3839L0.306476 49.645C-0.248394 50.5579 0.403408 51.7282 1.47304 51.7315L14.2016 51.7884L27.6689 74.0678C29.2366 76.6625 32.0477 78.2475 35.0795 78.2475H208.617C211.649 78.2475 214.46 76.6625 216.027 74.0678L234.368 43.7299C236.033 40.9747 236.033 37.5206 234.368 34.7653Z" fill="#F24AFF"/>
</svg>