<svg xmlns="http://www.w3.org/2000/svg" width="187" height="72" viewBox="0 0 187 72" fill="none">
<path d="M158.091 0.852783H29.6052C13.6515 0.852783 0.718506 13.7903 0.718506 29.7495C0.718506 45.7087 13.6515 58.6462 29.6052 58.6462H158.091C174.045 58.6462 186.978 45.7087 186.978 29.7495C186.978 13.7903 174.045 0.852783 158.091 0.852783Z" fill="#FFCE00"/>
<path d="M92.8704 70.6035L99.2347 54.4531H83.7651L90.1294 70.6035C90.6208 71.8473 92.379 71.8473 92.8704 70.6035Z" fill="#FFCE00"/>
<path d="M24.0232 30.1809C24.0232 26.1884 26.9212 23.8645 30.1802 23.8645C32.6738 23.8645 34.8565 25.2521 35.6822 27.6061L33.8738 28.3384C33.2354 26.7635 31.9251 25.7203 30.1502 25.7203C27.8739 25.7203 26.0822 27.4523 26.0822 30.2744C26.0822 33.4075 28.3117 34.6882 30.3206 34.6882C32.3295 34.6882 33.7201 33.4711 34.3117 31.5384L36.12 32.1637C35.2008 35.0326 33.0482 36.544 30.2738 36.544C26.6404 36.544 24.0232 33.986 24.0232 30.1809Z" fill="black"/>
<path d="M37.4739 30.2109C37.4739 26.4994 40.2315 23.8645 43.6142 23.8645C46.9969 23.8645 49.7412 26.5629 49.7412 30.2109C49.7412 33.859 47.0304 36.5407 43.6009 36.5407C40.1714 36.5407 37.4739 33.9359 37.4739 30.2109ZM43.6309 34.6849C45.8738 34.6849 47.6688 32.799 47.6688 30.2109C47.6688 27.6229 45.9072 25.7203 43.6309 25.7203C41.3546 25.7203 39.5463 27.6062 39.5463 30.2109C39.5463 32.8157 41.3847 34.6849 43.6309 34.6849Z" fill="black"/>
<path d="M52.2646 24.1152H54.6947L58.7626 33.2671H58.7927C60.1632 30.2276 61.5203 27.1714 62.8774 24.1152H65.3108V36.2765H63.3153V27.8101H63.2685L59.5281 36.2765H58.0306C56.8005 33.4543 55.5538 30.6322 54.307 27.8101H54.2602V36.2765H52.2646V24.1152Z" fill="black"/>
<path d="M68.5532 24.1152H76.4082V25.9242H70.5153V29.1376H76.094V31.0234H70.5153V34.4541H76.562V36.2798H68.5498V24.1186L68.5532 24.1152Z" fill="black"/>
<path d="M82.1743 39.2257L82.7826 38.4934C83.1737 38.9916 83.7186 39.2123 84.2166 39.2123C84.7147 39.2123 85.089 38.9783 85.089 38.5569C85.089 38.1657 84.7447 37.9183 84.2801 37.9183C83.9993 37.9183 83.7654 37.9952 83.5782 38.1223L82.9865 37.6541L83.7353 36.5006C80.523 36.1428 78.2969 33.6952 78.2969 30.1876C78.2969 26.1951 81.1949 23.8712 84.4539 23.8712C86.9475 23.8712 89.1302 25.2589 89.9558 27.6129L88.1475 28.3452C87.5091 26.7702 86.1988 25.727 84.4239 25.727C82.1475 25.727 80.3559 27.459 80.3559 30.2812C80.3559 33.4143 82.5854 34.6949 84.5943 34.6949C86.6032 34.6949 87.9937 33.4778 88.5854 31.5451L90.3937 32.1704C89.5046 34.9457 87.4489 36.4571 84.7982 36.5507C84.6578 36.7547 84.5174 36.972 84.3771 37.1894C84.5007 37.1425 84.6411 37.1258 84.7815 37.1258C85.6539 37.1258 86.3258 37.6708 86.3258 38.5603C86.3258 39.5433 85.4701 40.182 84.2834 40.182C83.3943 40.182 82.6155 39.8075 82.181 39.2324L82.1743 39.2257Z" fill="black"/>
<path d="M95.7184 24.1152H97.978L102.684 36.2765H100.595C100.144 35.1061 99.676 33.9525 99.2248 32.7822H94.3914C93.9401 33.9525 93.5022 35.1061 93.051 36.2765H90.9919L95.715 24.1152H95.7184ZM98.5228 30.8964C98.0248 29.6023 97.4465 28.1211 96.8381 26.4692H96.8081L95.0933 30.8964H98.5228Z" fill="black"/>
<path d="M104.633 24.1152H109.199C110.416 24.1152 113.344 24.7405 113.344 27.9338C113.344 30.1774 112.004 31.3344 110.493 31.6286V31.6454L113.595 36.2765H111.382L108.404 31.7858H106.595V36.2765H104.63V24.1152H104.633ZM108.872 30.0403C110.008 30.0403 111.288 29.5254 111.288 27.9806C111.288 26.4358 109.995 25.8907 108.858 25.8907H106.599V30.037H108.875L108.872 30.0403Z" fill="black"/>
<path d="M165.706 29.0406H122.92V30.3781H165.706V29.0406Z" fill="black"/>
<path d="M158.97 37.2897L158.024 36.3434L164.656 29.7094L158.024 23.0755L158.97 22.1292L166.548 29.7094L158.97 37.2897Z" fill="black"/>
</svg>